<?xml version="1.0" encoding="UTF-8"?>
<svg width="1264" height="1440" version="1.1" viewBox="0 0 1264 1440" xml:space="preserve" xmlns="http://www.w3.org/2000/svg" xmlns:cc="http://creativecommons.org/ns#" xmlns:dc="http://purl.org/dc/elements/1.1/" xmlns:rdf="http://www.w3.org/1999/02/22-rdf-syntax-ns#"><metadata><rdf:RDF><cc:Work rdf:about=""><dc:format>image/svg+xml</dc:format><dc:type rdf:resource="http://purl.org/dc/dcmitype/StillImage"/><dc:title/></cc:Work></rdf:RDF></metadata><defs><clipPath id="clipPath651"><path d="M 0,1080 H 948.077 V 0 H 0 Z"/></clipPath></defs><g transform="matrix(1.3333 0 0 -1.3333 0 1440)"><g clip-path="url(#clipPath651)"><g transform="translate(777.87 580.95)"><path d="m0 0c-9.187 2.213-12.539 10.176-16.905 17.146-4.399 5.664-8.798 11.327-13.203 16.99-3.387 2.135-6.774 4.272-14.533 9.167 18.449-32.865 76.497-97.161 96.367-122.63 2.266 2.213-16.943 36.338-14.697 38.578-8.442 10.109-30.169 29.39-37.029 40.753"/></g><g transform="translate(816.4 865.69)"><path d="m0 0-0.014 0.382c-0.063 3.273-0.11 6.542-0.164 9.814-0.066 0.04-0.134 0.077-0.197 0.117-12.486 7.699-27.267 10.073-42.214 10.361 14.227-7.323 28.4-14.743 42.563-22.179z"/></g><g transform="translate(684.28 801.32)"><path d="m0 0c9.757-8.151 91.718-73.965 101.64-81.925 6.196-4.976 12.221-13.345 18.37-18.37-7.576 8.086-4.362 22.252-16.533 34.903-10.644 11.065-58.048 40.537-103.47 65.392"/></g><g transform="translate(499.16 273.27)"><path d="m0 0v4e-3c-0.985-0.537-1.958-1.04-2.91-1.523 0.966 0.299 1.931 0.618 2.903 0.922 0 0.201 7e-3 0.4 7e-3 0.597"/></g><g transform="translate(461.31 297.88)"><path d="m0 0c1.138 0.322 2.696-3.003 3.833-2.676 2.499 0.719 3.322 7.148 2.232 9.51-8.932 19.375-33.371 98.074-34.136 106.86-0.871 10.12-7.919 19.136-7.517 29.872-0.203 2.477-0.41 4.956-0.619 7.433-0.189 0.596-0.372 1.17-0.561 1.766-12.27 21.084-17.088 44.863-24.387 67.748-0.028 0.089-0.058 0.174-0.092 0.261-0.322 0.839-0.665 1.731-1.007 2.621 0.225-0.216 0.441-0.443 0.638-0.686 3.513-4.351 6.158-1.642 7.559 0.323 1.807 2.535-0.304 5.612-3.033 6.475-5.267 1.668-7.621 6.311-11.202 9.689 7e-3 -0.048 0.014-0.096 0.021-0.146-0.025 0.067-0.051 0.134-0.077 0.202 0.019-0.018 0.036-0.038 0.056-0.056-0.019 0.123-0.042 0.251-0.055 0.369l-0.073-0.125c0.034 0.058 0.073 0.125 0.073 0.125-0.069 0.079-0.137 0.146-0.205 0.219-0.63 1.637-1.272 3.307-1.929 5.02-0.755 2.303-1.526 4.638-2.653 6.902-2.82 7.336-5.834 15.179-8.953 23.297 0.494 0.116 1.011 0.24 1.586 0.38-0.752 0.57-1.508 1.017-2.267 1.39-14.163 36.854-30.291 78.82-39.69 103.28-1.954 5.086-9.68 2.425-8.002-2.759 2.725-8.42 7.324-16.543 8.367-25.255 0.681-5.686 4.625-10.854 5.293-16.854 0.161-1.447 0.985-2.72 2.27-3.404 7.936-4.214 10.426-13.085 13.104-20.246 4.144-11.083 8.247-22.182 12.332-33.288-4 0.154-7.972-0.662-11.71 0.302 7.279-2.796 10.456-4.017 13.164-4.228 4.29-11.684 8.541-23.382 12.768-35.089-0.413 0.161-0.827 0.292-1.243 0.283-1.911-0.041-3.524 2.545-5.421 0.923-1.207-1.032-0.577-2.83-0.114-4.198 0.989-2.926 2.97-2.451 5.348-1.643 0.953 0.324 2.096 0.444 3.043 0.184 8.99-24.948 17.846-49.946 26.573-74.989 2.079-5.958 4.023-12.174 3.219-18.719-0.26-1.83-0.555-3.771-1.23-5.467-0.411-1.034-0.453-2.162-0.035-3.192 6.868-16.93 33.266-106.47 39.499-129.45 0.617-2.272 2.967-3.6 5.233-2.959"/></g><g transform="translate(333.06 337.92)"><path d="m0 0c0.047-0.322 0.081-0.645 0.134-0.966 0.972 0.349 1.777 0.815 2.508 1.331-0.878-0.114-1.764-0.252-2.642-0.365"/></g><g transform="translate(773.8 452.94)"><path d="m0 0c-6.002 9.345-16.691 5.925-25.522 5.106-4.648-0.429-3.24-5.756-2.012-8.778 2.763-6.816 1.683-18.756 15.967-10.454 2.266 1.314 3.782 0.248 4.526-1.502 3.869 2.829 7.712 5.687 11.527 8.583-1.569 2.059-2.89 4.564-4.486 7.045"/></g><g transform="translate(695.47 612.27)"><path d="m 0,0 c 11.108,-12.581 22.458,-24.966 33.864,-37.281 0.044,2.692 0.098,5.354 0.148,8.027 C 24.131,-18.13 14.391,-6.891 4.875,4.536 3.252,3.021 1.63,1.499 0,0"/></g><g transform="translate(556.51 414.21)"><path d="m0 0c-6.404-2.096 3.037 20.818-12.231 7.373-3.588-3.162-8.289 3.735-11.287 9.331-1.132-4.526-2.641-9.036-4.512-13.566 3.591-5.492 7.181-10.984 10.776-16.473 0.321-1.82 30.093-65.427 30.549-67.19 10.273 4.335 31.274-26.597 41.326-21.845-1.221 2.162-42.403 101.8-43.134 104.27-1.428 4.94-2.85 9.895 0.02 14.821-11.923 1.425-13.392 12.566-17.167 20.671-4.955 10.641-10.106 21.183-15.326 31.691-0.16-2.907-0.258-5.831-0.305-8.77 2.683-5.829 5.459-11.602 8.423-17.251 6.853-13.041 11.996-27.005 20.721-39.096-1.335-3.862-4.494-4.111-7.853-3.966"/></g><g transform="translate(136.92 547.85)"><path d="m0 0c-1.817-6.206-4.292-12.194-8.369-17.646-1.488-0.583-2.937-1.264-4.385-1.968-1.865-14.549-2.301-29.322-6.002-43.581 0.979-2.405 1.998-4.792 3.125-7.136-0.389-4.805-0.899-9.586-1.462-14.351 5.418 28.296 10.514 56.652 17.093 84.682"/></g><g transform="translate(423.72 725.83)"><path d="m0 0c-0.174-0.238-0.342-0.476-0.516-0.718 0.167 0.221 0.322 0.443 0.516 0.664z"/></g><g transform="translate(316.42 554.07)"><path d="m0 0c1.733-11.5 3.299-23.028 4.825-34.565-0.017 1.388-0.04 2.779-0.151 4.141-0.134 1.703-0.074 3.406-0.04 5.11 0.107 6.286 3.664 37.391-4.634 25.314"/></g><g transform="translate(290.33 254.76)"><path d="m0 0c-1.616-0.101-3.232-0.208-4.855-0.299 0.778-7.771 3.195-15.413 5.17-23.092 0.745 0.54 1.472 1.087 2.16 1.661-0.514 7.272-1.506 14.495-2.475 21.73"/></g><g transform="translate(147.41 594.79)"><path d="M 0,0 C 3.628,18.505 6.954,37.076 10.669,55.564 6.565,37.435 2.803,18.856 0,0"/></g><g transform="translate(346.3 112.54)"><path d="m0 0c-17.963-1.149-36.124-3.088-54.116-4.335-28.485-1.975-56.893-3.63-85.356-5.508-4.805-0.317-9.774-0.81-14.574-1.691-10.272-1.884-20.452-4.421-30.728-6.029-7.957-1.246-16.032-1.595-24-2.124-3.55-0.236-7.28-0.027-8.297-2.639-0.956-2.456 1.368-3.741 6.095-3.461 2.661 0.157 5.43 0.725 8.098 0.898 27.747 1.795 55.467 3.481 83.233 5.353 8.737 0.589 17.593 1.677 26.385 2.474 2.894 0.263 5.803 0.438 8.626 0.471 10.425 0.122 20.703-0.204 31.246 0.326 17.69 0.889 35.518 2.2 53.333 3.547 7.742 0.585 15.596 1.703 23.398 2.579 24.043 4.297 48.086 8.595 72.128 12.892 3.423 3.249 6.845 6.498 11.126 10.562-13.419-2.398-24.781-4.387-36.125-6.465-23.782-4.357-47.061-5.352-70.472-6.85"/></g><g transform="translate(892.15 127.45)"><path d="m0 0c-2.763-4.789-4.644-10.088-6.738-14.865 4.531 1.818 8.783 3.524 13.036 5.231v13.457c-2.158-1.24-5.222-1.959-6.298-3.823"/></g><g transform="translate(703.01 174.01)"><path d="m0 0c2.356-1.705 4.653-3.494 7.892-5.936 2.369 5.78 3.335 9.374-3.517 10.016-3.867 0.362-7.662 1.498-11.969 1.226 2.533-1.765 5.092-3.495 7.594-5.306"/></g><g transform="translate(408.34 81.672)"><path d="m0 0c4.576-0.836 9.152-1.672 13.728-2.507 0.178 1.006 0.357 2.012 0.536 3.019-4.607 0.791-9.214 1.582-13.82 2.374z"/></g><g transform="translate(722.96 469.91)"><path d="M 0,0 C 0.035,0.052 0.07,0.104 0.106,0.156 0.029,0.167 -0.047,0.177 -0.123,0.187 -0.123,0.188 0,0 0,0"/></g><g transform="translate(723.79 469.97)"><path d="m0 0-0.192 0.87-0.525-0.77c0.239-0.034 0.478-0.067 0.717-0.1"/></g><g transform="translate(200.94 535.98)"><path d="m0 0c0.265-0.231 0.627-0.353 0.954-0.504 0.027 0.227 0.158 0.576 0.063 0.656-0.27 0.228-0.633 0.345-0.959 0.505-0.026-0.226-0.156-0.572-0.058-0.657"/></g><g transform="translate(553.09 508.74)"><path d="m0 0c-0.106-0.166-0.123-0.389-0.179-0.589 0.277 0.068 0.552 0.136 0.827 0.203l-0.24 0.548c-0.14-0.051-0.344-0.061-0.408-0.162"/></g><g transform="translate(407.11 434.79)"><path d="m0 0c0.625-0.523 1.15-1.857 2.115-0.773 0.941 1.057-0.352 1.517-0.993 2.078-1.502 2.369-3.014 4.726-6.602 5.913 0.453-1.374 0.489-2.128 0.88-2.557 1.471-1.611 3.057-3.116 4.6-4.661"/></g><g transform="translate(101.17 300.11)"><path d="m0 0c0.995-16.892 2.535-17.762 19.466-15.377 1.227 0.172 2.46 0.315 3.675 0.551 5.168 1.002 8.244 2.889 7.602 9.43-1.074 10.934-0.535 11.049-10.996 12.355-3.653 0.456-7.205 1.979-11.04 0.939-1.57-0.425-3.002 0.512-3.658 1.969z"/></g><g transform="translate(16.375 138.98)"><path d="m0 0c-0.908-1.871-0.339-3.532 0.279-5.228 0.681 1.7 1.177 3.381-0.279 5.228"/></g><g transform="translate(17.528 129.8)"><path d="m0 0c0.076 1.404-0.413 2.688-0.875 3.953-0.515-1.287-1.138-2.583-1.102-3.969 0.34-13.1-0.326-26.224-0.237-39.337 0.034-5.053-0.968-10.27 1.288-15.198 3.163 18.197-0.054 36.4 0.926 54.551"/></g><g transform="translate(11.622 174.93)"><path d="M 0,0 C 0.916,5.759 8.072,8.304 7.609,14.781 3.622,10.63 -4.456,8.678 0,0"/></g><g transform="translate(19.212 190.11)"><path d="m0 0c0.016-0.139 9e-3 -0.265 0.019-0.399 0.063 0.065 0.133 0.126 0.194 0.192 0.014 0.111 0.038 0.217 0.054 0.327-0.09-0.041-0.167-0.089-0.259-0.128z"/></g><g transform="translate(8.2735 185.23)"><path d="m0 0c-2.305-26.236-5.492-52.323-2.433-78.586 1.769 17.109 3.649 34.213 3.834 51.342 0.614 3.046 0.642 4.481-4e-3 5.654-0.088 7.191-0.501 14.386-1.397 21.59"/></g><g transform="translate(919.12 191.42)"><path d="m0 0c0.075 1.404-0.413 2.688-0.875 3.952-0.516-1.286-1.138-2.582-1.102-3.968 0.339-13.101-0.327-26.224-0.238-39.338 0.035-5.053-0.968-10.27 1.288-15.197 3.163 18.197-0.053 36.4 0.927 54.551"/></g><g transform="translate(908.01 324.84)"><path d="m0 0c-4.593-52.275-10.944-104.25-4.849-156.58 3.526 34.091 7.272 68.169 7.641 102.3 1.221 6.069 1.279 8.929-8e-3 11.265-0.178 14.328-0.999 28.664-2.784 43.018"/></g><g transform="translate(675.15 422.49)"><path d="m0 0c-1.303-3.785 0.546-5.734 4.336-7.118 0.408 3.653 1.078 6.961-1.991 9.15-1.054 0.753-1.975-0.957-2.345-2.032"/></g><g transform="translate(693.76 137.17)"><path d="m0 0c6.089 1.842 12.089 1.081 18.234-0.382 6.012-1.431 12.251-1.902 19.421-2.944-3.744 5.323-8.885 4.27-13.061 5.191-8.323 1.834-16.74 3.322-25.376 2.131-2.296-0.316-3.187-1.568-2.676-3.428 0.555-2.021 2.018-1.004 3.458-0.568"/></g><g transform="translate(426.63 310.05)"><path d="m0 0c-3.229-0.67-7.465 0.227-8.13-5.232-0.055-0.454-0.111-0.908-0.166-1.361-12.954 47.074-46.343 156.36-52.382 189.32-2.125 0.218-4.251 0.45-6.397 0.707-3.333 0.403-6.967 0.791-10.743 1.093 1.368-4.515 2.716-9.039 4.131-13.539 2.347-7.504 4.359-14.719 4.413-22.511 1.663-2.656 2.105-5.445 2.166-8.275 4.005-15.339 20.175-81.969 32.196-131.2-1.239-0.685-2.565-1.346-4.037-1.988 2.189-0.443 3.544-0.716 4.758-0.961 4.917-20.131 9.06-37.012 11.269-45.757-0.08-0.059-0.148-0.121-0.229-0.179-8.451-6.025-9.527-14.628-8.535-26.651 3.274 6.157 7.109 9.399 5.742 14.243-1.055 3.736 0.911 4.977 3.644 4.63 6.863-0.871 7.179 4.571 9.268 8.611 4.483 8.673 5.311 19.563 16.296 24.335 3.123 1.357 4.692 6.291 6.973 9.585-3.93 0.723-5.677 6.069-10.237 5.123"/></g><g transform="translate(727.02 371.85)"><path d="m0 0c4.772-1.466 28.717 0.157 31.688 0 16.899 1.633 20.652-3.953 32.833 4.086 11.284 7.444 11.231-9.694 20.386-0.3 3.539 3.63 7.221 6.77 12.277 7.735 2.069 0.395 5.454-0.8 5.577 2.013 0.148 3.39-3.493 3.685-6.148 3.926-6.718 0.609-13.376-0.773-19.79-2.191-4.099-0.908-8.207-1.373-12.312-1.584 0.019 0.024 0.038 0.054 0.057 0.078 0.664 0.826 0.259 2.426 0.713 3.518 3.323 7.986-4.109 12.466-5.729 18.825-0.72 1e-3 -1.44 3e-3 -2.159 4e-3 0-6.878 0.183-13.763-0.094-20.631-0.025-0.614-0.101-1.275-0.168-1.937-4.087 0.034-8.165 0.218-12.224 0.382-10.847 0.437-21.379 4.841-32.52 3.767-0.969-0.093-2.317-0.174-2.913 0.369-6.615 6.024-13.772 0.711-20.286 0.248-9.554-0.679-15.95-9.912-24.969-13.137-1.484-0.53-1.77-1.539-1.789-2.828-0.177-11.719-4.868-22.23-9.15-32.765-2.272-5.591-0.441-6.833 4.645-6.139 1.705 0.233 3.38 0.744 5.044 1.215 13.823 3.926 22.97 39.665 37.031 35.346"/></g><g transform="translate(630.45 373.33)"><path d="M 0,0 C 2.226,-12.663 5.063,-25.246 5.721,-39.014 11.71,-24.171 7.187,-11.866 0,0"/></g><g transform="translate(630.45 373.33)"><path d="m0 0c-0.037 0.215-0.078 0.43-0.115 0.645l-0.176-0.156c0.1-0.162 0.192-0.326 0.291-0.489"/></g><g transform="translate(435.59 535.07)"><path d="m0 0c-1.233-1.125 0.731-3.106 1.9-2.929 4.686 0.715 8.775-2.443 14.012-2.234-2.763 4.942-6.907 5.775-10.318 7.634-2.558 1.394-4.207-1.205-5.594-2.471"/></g><g transform="translate(141.13 377.44)"><path d="m0 0c-1.913-6.969-0.67-12.984 4.676-16.401-1.365 4.788-3.02 10.594-4.676 16.401"/></g><g transform="translate(401.25 399.61)"><path d="m0 0c-0.105 8e-3 -0.197 0.028-0.3 0.037 0.049-0.059 0.097-0.119 0.146-0.179z"/></g><g transform="translate(388.87 414.48)"><path d="m0 0c1.695-7.099 3.559-14.038 12.073-14.83z"/></g><g transform="translate(630.16 373.82)"><path d="m0 0c0-1e-3 0.176 0.154 0.176 0.154-0.091 0.104-0.158 0.218-0.245 0.323 0.023-0.159 0.042-0.32 0.069-0.477"/></g><g transform="translate(624.4 389.4)"><path d="M 0,0 C 1.478,-5.204 2.105,-10.77 5.691,-15.103 4.885,-9.629 6.58,-3.153 0,0"/></g><g transform="translate(370.66 707.78)"><path d="M 0,0 C 1.105,-3.097 0.756,-7.109 5.023,-7.297 6.936,-7.381 9.001,-5.445 8.295,-3.34 7.15,0.071 4.36,1.378 0,0"/></g><g transform="translate(99.602 104.05)"><path d="m0 0h-17.83c6.575-3.652 12.153-2.789 17.83 0"/></g><g transform="translate(463.42 493.66)"><path d="M 0,0 C 0.81,-2.277 1.564,-4.588 3.684,-6.385 5.365,-3.966 7.306,-1.85 7.333,1.237 4.789,1.415 1.751,4.52 0,0"/></g><g transform="translate(483.31 495.93)"><path d="m0 0c-3.146 1.071-5.401 0.379-5.811-3.25-0.217-1.933 1.11-3.84 2.713-3.817 3.867 0.055 4.455 2.959 4.09 6.184-0.526 0.075-0.856 0.371-0.992 0.883"/></g><g transform="translate(635.35 380.33)"><path d="M 0,0 C -0.778,-5.779 2.377,-10.582 3.506,-15.888 5.518,-9.802 0.68,-5.417 0,0"/></g><g transform="translate(67.617 109.47)"><path d="M 0,0 C 4.307,-1.95 8.159,-5.546 13.623,-3.307 9.048,-2.328 5.266,1.521 0,0"/></g><g transform="translate(772.08 408.8)"><path d="m0 0c-0.529-2.314-1.077-4.637-1.695-7.257 4.812 1.903 1.811 4.838 1.695 7.257"/></g><g transform="translate(772.16 409.63)"><path d="m0 0c-0.083-0.267-0.1-0.545-0.086-0.829 0.05 0.22 0.102 0.44 0.151 0.66-3e-3 5e-3 -0.01 0.025-0.015 0.037 9e-3 0.068 0.011 0.135 0.018 0.202-0.024-0.023-0.044-0.047-0.068-0.07"/></g><g transform="translate(625.92 403.64)"><path d="m0 0s0.115 0.56 0.129 0.577l0.014 0.013c-0.037 0.075-0.073 0.145-0.108 0.22-0.011-0.117-0.012-0.234-0.024-0.35z"/></g><g transform="translate(516.51 94.952)"><path d="m0 0c-2.973 0.087-5.949 0.014-8.782 0.014 1.572-7.587 2.903-14.012 4.235-20.437 0.42-0.031 0.841-0.061 1.262-0.093 0.565 2.132 1.13 4.264 1.869 7.054 1.804-1.496 3.143-2.309 4.098-3.445 9.182-10.924 20.208-18.881 34.41-21.967 1.735-0.377 3.226-1.783 4.954-2.313 9.687-2.969 19.267-6.577 29.168-8.477 8.827-1.693 9.934 6.658 12.533 12.414 2.059 4.559-0.067 7.364-4.103 9.483-5.007 2.63-9.946 5.406-14.778 8.343-1.359 0.826-13.595 7.67-16.121 8.836-6.999 3.234-13.726 7.837-21.081 9.32-8.943 1.804-18.418 0.997-27.664 1.268"/></g><g transform="translate(138.43 145.49)"><path d="m0 0 0.308-0.653c1.062-1.566 2.754-2.432 4.805-2.497 2.893-0.262 5.94-0.469 9.053-0.615 3.076-0.144 6.333-0.231 9.68-0.257l2.714-0.021-0.363 2.689c-0.058 0.435-0.098 0.853-0.121 1.262v0.02c-0.037 0.531-0.091 1.042-0.185 1.607l-0.042 0.178c-0.593 2.131-2.17 3.618-4.444 4.197-0.282 0.1-0.549 0.17-0.808 0.212l-0.064 0.029c-0.79 0.303-1.585 2.116-1.449 6.296 0.322 9.694-0.096 17.357-1.243 22.785l0.077 0.605-0.448 0.473c-0.02 0.061-0.044 0.138-0.072 0.233l-4e-3 0.016 6e-3 0.214-0.164 0.441c-2.724 7.229-5.245 12.115-7.741 14.975-5.181 5.536-13.99 7.191-26.186 4.921l-1.452 0.049c-0.196 1.015-0.346 2.228-0.455 3.655-0.012 0.097-0.068 0.755 0.047 4.16l0.354 10.652c0.036 1.232-0.202 2.346-0.724 3.347-1.201 2.155-4.393 2.532-7.041 2.621-5.818 0.188-10.065-0.24-13.003-1.32-0.382-3e-3 -0.734-0.054-1.087-0.154-2.777-0.528-4.276-2.544-3.912-5.283 0.352-2.649 2.285-4.286 5.293-4.387l0.38 0.028 0.247 0.073c0.512 0.151 1.058 0.222 1.626 0.199 0.926-0.03 1.559-0.295 2.054-0.857 0.711-0.806 1.818-3.071 1.261-9.084-0.856-5.647-1.539-12.146-2.027-19.317-0.483-7.115-0.831-15.06-1.034-23.602-0.076-2.35-0.367-4.398-0.857-6.051-0.715-2.225-2.194-3.875-4.521-5.041-0.315-0.102-0.583-0.204-0.781-0.296-0.423-0.19-0.763-0.411-1.027-0.664-0.642-0.602-0.987-1.416-0.972-2.291 0.022-1.371 0.857-2.679 2.793-4.372l0.631-0.554 4.687-0.152c1.753 0.022 3.698 0.063 5.825 0.119 2.157 0.055 4.252 0.18 6.226 0.371 1.871 0.182 3.329 0.413 4.443 0.705l0.566-0.018c0.265-0.01 0.576-0.055 0.918-0.123 0.625-0.127 1.195-0.199 1.694-0.213l1.009-0.026c3.151 0.17 5.101 2.404 5.214 6.106-0.155 3.149-4.163 3.77-8.434 4.039-1.979 2.179-2.178 2.899-2.168 2.856 0.059 1.913 4e-3 4.172-0.167 6.717-0.281 4.085-0.505 7.296-0.68 9.629-0.215 2.934-0.23 3.917-0.219 4.244 0.095 2.871 1.298 6.41 3.577 10.522 0.821 0.893 1.639 1.688 2.432 2.363 0.79 0.671 1.656 1.242 2.548 1.686 1.404 0.669 4.448 1.418 10.92 1.243 4.706-1.788 6.783-4.381 6.726-8.386l-1e-3 -0.134 0.02-0.132c0.191-1.219 0.32-2.683 0.385-4.352 0.064-1.68 0.099-3.647 0.105-5.985-0.115-8.518 0.066-14.089 0.552-17.013-0.103-1.226-0.789-3.629-3.332-8.25-2.454-1.613-2.189-3.621-1.948-4.437"/></g><g transform="translate(233.55 161.86)"><path d="m0 0-0.034-6.72c-0.117-2.156-0.951-2.587-2.448-2.627l-0.502-0.068c-0.449-0.11-0.969-0.288-1.587-0.545-0.394-0.163-0.885-0.319-1.498-0.476l-0.156-0.048c-8.008-2.954-12.031-3.575-14.011-3.575l-0.664-0.095c-1.169-0.343-2.221-0.525-2.972-0.526-2.91 0.127-4.552 1.276-5.329 3.733-1.44 4.479-1.507 8.188-0.202 11.026 2.839 4.25 6.083 7.128 9.65 8.561 0.343 9e-3 0.683 0.031 1.019 0.066 0.444 0.043 0.974 0.109 1.678 0.209 2.294 0.407 4.138 0.713 5.535 0.917 1.253 0.183 2.062 0.267 2.438 0.289 4.812-0.76 6.861-1.629 7.759-2.245 1.928-1.266 1.784-4.981 1.324-7.876m-1.638 18.055-10.491 0.011c-7.925 0-16.454-3.328-25.354-9.892-2.115-1.133-3.752-2.781-4.853-4.882-2.46-4.511-2.186-9.892 0.813-15.99l0.269-0.426c0.316-0.398 0.654-0.832 1.014-1.319 0.4-0.532 0.817-1.064 1.353-1.698 4.673-4.958 9.898-7.474 15.526-7.479 7.651 0.011 13.298 0.552 16.676 1.68 2.966 0.786 4.077 1.013 4.604 1.085 4.129 0.852 7.697 0.126 10.911-2.207l0.156-0.151c1.514-1.76 3.452-2.651 5.756-2.651 1.052 0 2.184 0.193 3.395 0.584 4.592 1.586 4.486 4.628 4.178 5.98-0.031 0.227-0.084 0.456-0.162 0.683-0.029 0.084-0.065 0.228-0.169 0.615l-0.058 0.179c-0.253 0.631-1.104 2.099-3.476 2.102-2.523 0.083-5.429 1.104-5.668 8.223 0.402 0.808 0.642 1.841 0.733 3.163 0.08 2.011 0.202 3.707 0.361 5.043 0.163 1.353 0.319 2.419 0.494 3.355l0.026 0.284c6e-3 3.164-0.12 6.211-0.374 9.056-0.248 2.781-0.682 5.377-1.253 7.519-0.594 5.134-3.594 9.938-8.919 14.283l-1.566 0.847c-0.468 0.233-0.936 0.445-1.356 0.615-8.232 3.548-17.178 3.75-26.59 0.597l-0.525-0.176-3.697-3.693c-1.133-1.224-2.422-3.891 1.667-7.99 0.624-0.631 1.389-1.14 2.338-1.546 2.91-1.095 5.546-0.526 7.355 1.531 1.082 1.082 2.291 1.996 3.6 2.722 1.036 0.582 3.417 1.276 8.89 1.304 3.979-1.54 5.896-4.376 6.027-8.858 0-0.326-4e-3 -1.273-1.631-2.503"/></g><g transform="translate(279.63 199.57)"><path d="m0 0c-0.797-0.315-1.559-0.839-2.262-1.558-0.927-0.946-1.396-2.188-1.323-3.494l0.129-2.345 2.348 0.124c2.121 0.12 3.898-0.329 5.274-1.275 0.945-0.723 2.484-2.658 4.432-7.764 0.408-1.111 0.785-2.072 1.131-2.864 0.324-0.755 0.578-1.369 0.813-1.943l0.087-0.179c6.927-12.25 11.749-21.171 14.316-26.488 0.25-0.546 0.617-1.152 1.117-1.842 0.382-0.529 0.782-1.134 1.313-1.961 1.009-1.349 1.775-2.481 2.28-3.367l1.457-1.471c0.388-0.348 0.796-0.665 1.267-0.98 1.481-0.96 3.009-1.447 4.543-1.447 0.569 0 1.139 0.067 1.695 0.2 2.915 0.696 5.554 3.138 8.067 7.467l2.187 5.362c0.807 1.989 1.719 4.213 2.731 6.63 2.669 6.049 4.915 11.499 6.672 16.198 1.774 4.743 3.058 8.811 3.82 12.093l0.06 0.539c-8e-3 2.441 0.911 4.178 2.895 5.465l0.703 0.709c0.584 0.919 0.946 2.035 1.104 3.413l0.015 0.13-6e-3 0.13c-0.069 1.291-0.547 2.372-1.384 3.123-0.895 0.806-2.106 1.168-3.566 1.093l-17.166-0.922-0.666-0.154c-0.041-7e-3 -0.103-0.012-0.195-0.018l-0.489-0.079c-0.999-0.27-4.037-1.091-4.394-3.673-0.363-2.623 2.374-4.262 3.404-4.879l0.761-0.292c1.976-0.383 2.764-0.969 3.023-1.247 0.094-0.108 0.909-1.176 1.197-6.099-0.921-5.829-3.242-13.687-6.895-23.348-0.951-2.468-1.766-4.677-2.422-6.564-0.268-0.776-0.509-1.491-0.725-2.156-0.015 4e-3 -0.03 8e-3 -0.044 0.012-1.053 1.813-2.178 3.853-3.35 6.075-1.358 2.569-2.847 5.54-4.411 8.807-4.756 10.358-8.391 17.636-10.814 21.651 6e-3 0.039 0.014 0.077 0.022 0.121l0.028 0.213c0.058 0.956 0.297 1.199 0.339 1.171l0.978 0.054 1.428 1.603 0.13 0.169c0.77 1.146 1.072 2.761 0.949 5.083l-0.124 2.353-21.386-1.15z"/></g><g transform="translate(388.04 189.15)"><path d="m0 0c0.285 0.798 0.656 1.592 1.124 2.398 2.948 5.416 8.205 8.049 16.067 8.049 0.961 0 1.987-0.04 3.045-0.119l0.126-0.01 6.667 0.559c0.01 4e-3 0.305 0.012 0.837-0.292 2.133-1.423 3.769-3.608 4.847-6.464 0.786-2.227 0.45-2.882 0.45-2.884-2e-3 -1e-3 -0.114-0.106-0.636-0.186l-0.155-0.032c-0.356-0.091-0.768-0.157-1.223-0.196-0.664-0.056-1.389-0.165-2.006-0.299-14.531-2.208-23.29-3.443-26.026-3.673-0.987-0.079-1.856 0.056-2.653 0.416-0.607 0.336-1.252 0.758-0.464 2.733m8.639-12.275c3.916-0.267 8.846 0.148 14.648 1.231 10.754 2.128 14.298 2.682 15.378 2.773l0.889 0.255c0.974 0.506 1.828 0.961 2.671 1.429 1.959 1.223 3.14 2.696 3.513 4.378 0.322 1.438 0.038 2.913-0.839 4.388-2.351 7.215-4.714 12.082-7.223 14.877l-0.096 0.1c-3.683 3.649-9.754 5.144-18.041 4.442l-8.532-0.72-0.182-0.025c-1.458-0.298-2.925-0.663-4.359-1.085-1.457-0.431-2.883-0.929-4.264-1.49-10.966-4.674-17.469-13.039-19.302-24.734-0.809-3.346-0.968-6.936-0.465-10.713 1.337-8.363 6.053-14.854 14.014-19.295l0.238-0.106c5.57-1.986 9.471-3.209 11.543-3.627 3.098-0.734 6.147-1.106 9.062-1.106h0.01c5.903 0 11.419 1.506 16.357 4.453 0.771 0.432 1.646 0.846 2.567 1.219 4.244 1.605 5.472 2.601 6.105 3.352 0.177 0.206 0.489 0.591 0.715 0.994 1.317 1.743 1.798 3.316 1.47 4.806-0.279 1.264-1.111 2.288-2.326 2.917-2.011 1.193-4.051 1.036-5.535-0.398-1.152-0.438-2.858-1.094-5.115-1.962-2.644-1.02-6.079-2.437-10.284-4.243-2.293-1.134-4.627-1.691-6.687-1.664-2.707 0.126-6.653 1.8-11.45 4.861-0.791 0.478-1.52 1.024-2.052 1.524-2.707 2.827-3.777 6.438-3.257 11.018 2.8 1.045 6.437 1.768 10.829 2.151"/></g><g transform="translate(467.86 203.77)"><path d="m0 0c1.47 0.572 2.463 0.883 3.117 1.05 1.023-5.303 1.865-12.904 2.506-22.622 0.322-5.537 0.626-9.647 0.9-12.222-0.178-1.616-0.744-3.089-1.64-4.328-0.052-0.065-0.28-0.317-1.046-0.855-2.343-1.712-3.788-3.826-4.295-6.279l-0.572-2.739 2.796-0.093c1.672-0.057 3.309-0.084 4.91-0.084 9.093 1e-3 17.104 0.904 23.812 2.686l0.741 0.198 0.481 0.594c2.544 3.131 1.724 5.606 0.988 6.838-1.133 1.783-2.958 2.735-5.298 2.752-5.104-0.03-7.088 0.27-7.78 0.422-0.117 0.336-0.312 1.143-0.321 2.819-0.019 1.047-0.067 1.927-0.146 2.689l-1.344 13.013c-0.319 3.064 0.532 5.769 2.677 8.511l0.154 0.237c1.59 3.021 5.084 6.317 10.383 9.798 0.124 0.057 0.244 0.124 0.359 0.2 1.192 0.377 3.152 0.118 5.504-0.712 1.469-0.593 2.654-0.986 3.613-1.201 2.54-1.212 4.818-1.476 6.772-0.786 1.848 0.648 3.291 2.086 4.295 4.269l0.45 0.979-0.847 1.862c-0.246 0.55-0.62 1.125-1.146 1.761-3.217 3.93-6.976 5.96-11.172 6.032l-0.096 1e-3 -0.093-0.01c-8.192-0.847-15.46-3.95-21.632-9.23-0.147 0.255-0.301 0.517-0.466 0.786-0.565 0.918-1.101 1.623-1.633 2.143-0.154 0.285-0.308 0.562-0.464 0.839-0.22 0.378-0.436 0.735-0.637 1.055-1.887 3.055-5.034 3.89-8.658 2.318-0.623-0.078-1.313-0.193-2.058-0.345-0.87-0.181-1.793-0.411-2.751-0.689-6.288-1.854-10.195-3.929-12.291-6.53l-0.135-0.194c-1.061-1.822-1.222-3.384-0.479-4.646 0.67-1.14 2.007-1.784 3.608-1.758 2.377-0.308 5.383 0.182 8.934 1.471"/></g><g transform="translate(572.42 193.41)"><path d="m0 0c0.782 1.742 1.661 2.824 2.474 3.049 0.609 0.17 1.502-0.123 2.402-0.744 9.062-7.548 15.88-14.287 20.265-20.03l0.532-0.505c0.099-0.071 0.192-0.139 0.272-0.211 0.078-0.073 0.144-0.148 0.265-0.291l0.143-0.146c4.348-3.939 9.118-3.99 12.964-0.233 3.131 2.495 5.394 5.76 6.725 9.704l0.269 0.79-0.29 0.777c-0.44 1.194-1.766 3.11-5.781 2.548l-0.607-0.088-0.248-0.188-0.73-0.206-0.269-0.404c-3.906-2.031-5.42-2.397-5.811-2.464-0.361 0.154-1.539 0.783-4.223 3.204-0.667 0.586-1.352 1.238-2.04 1.94l-2.304 2.345c-5.686 6.197-9.013 9.688-10.417 10.928-0.224 0.323-0.458 0.624-0.682 0.873-0.263 0.471-0.642 1.543 0.924 3.845 1.127 1.658 2.964 4.054 5.473 7.127 2.333 2.909 4.171 5.292 5.461 7.084l0.317 0.606c0.111 0.179 0.584 0.864 2.172 2.519 1.301 1.253 1.968 2.623 1.981 4.072 0.013 1.314-0.51 2.561-1.557 3.712-0.297 0.485-0.731 0.884-1.267 1.161-1.381 0.712-3.775 1.176-14.75-2.342-1.079-0.373-1.967-0.665-2.669-0.88-0.593-0.184-0.986-0.301-1.19-0.34-1.634-0.31-2.875-1.245-3.639-2.812-0.94-2.342-0.164-4.578 2.129-6.133 0.167-0.114 0.401-0.25 0.713-0.401 0.133-0.066 0.336-0.204 0.689-0.435l0.059-0.033c3e-3 -0.118-0.011-0.335-0.102-0.682-1.4-5.086-5.214-10.011-11.337-14.64l-0.83-0.63c-0.148 0.36-0.273 0.751-0.373 1.17-1.451 7.586-2.651 14.761-3.567 21.324-0.872 6.275-1.475 11.993-1.789 17.004 0.218 0.879 0.236 1.805 0.054 2.754-0.321 1.687-1.503 2.937-3.248 3.428-1.262 0.356-2.857 0.342-4.868-0.041l-0.708-0.259c-2.68-1.501-7.776-3.991-15.146-7.402l-1.403-0.649 0.057-2.345c0.051-1.181 0.609-2.321 1.656-3.389 1.009-1.03 2.396-1.663 4.241-1.936l0.129-0.018 0.13 2e-3c3.327 0.063 4.772-0.148 5.307-0.27 0.194-0.361 0.615-1.344 1.06-3.682 0.788-5.004 1.816-11.046 3.145-18.471 1.268-7.081 2.806-15.371 4.571-24.642l1.203-6.251c0.288-3.21-1.158-5.577-4.544-7.45l-1.491-0.824 0.318-1.674c0.314-1.652 1.146-6.04 4.634-6.04h1e-3l0.915 0.193c1.865 0.803 4.742 1.379 8.56 1.712 6.352 0.592 10.701 1.392 13.296 2.446l1.885 0.768-0.488 1.976c-0.548 2.23-2.385 4.161-5.752 5.967-0.231 0.097-0.427 0.186-0.576 0.258l-0.081 0.031c-5.758 4.154-6.599 8.675-2.727 14.655z"/></g><g transform="translate(655.01 198.24)"><path d="m0 0c-0.29-0.113-0.591-0.246-0.917-0.402-0.389-0.192-0.797-0.412-1.396-0.781-1.589-1.155-2.499-2.473-2.704-3.923-0.174-1.257 0.2-2.521 1.069-3.636 1.162-1.538 2.677-2.352 4.385-2.352 0.653 0 1.327 0.122 2.004 0.363l0.663 0.362c2.419 1.887 6.007 3.432 10.621 4.583 3.311 0.726 6.122 1.429 8.352 2.087 2.267 0.666 3.989 1.255 5.015 1.708 1.58 0.559 2.671 1.714 3.158 3.351 0.398 1.382 0.416 2.554 0.054 3.581-0.311 0.886-0.833 1.771-1.551 2.632-0.635 0.765-1.408 1.584-2.581 1.65-0.347 0.091-0.7 0.169-1.066 0.229-0.679 0.113-1.408 0.107-2.145-0.025-4.149-0.673-5.61-0.467-5.974-0.384-0.258 0.203-1.434 1.352-3.273 6.542l-3.026 8.51c-1.882 8.294-5.277 19.381-10.09 32.957l-2.804 7.9c-2.157 5.785-4.426 8.716-7.107 9.219-1.474 0.308-3.687 0.028-9.918-4-0.991-0.608-1.876-1.139-2.67-1.592-0.762-0.439-1.424-0.841-1.987-1.207-0.197-0.087-0.409-0.194-0.632-0.328-0.199-0.121-0.458-0.284-0.759-0.484-4.266-2.769-5.085-3.179-5.152-3.212l-0.915-0.324-0.423-0.878c-0.542-1.136-1.025-3.417 1.908-5.99 2.974-2.356 6.286-2.04 9.106 0.851 3.141 1.839 4.528 2.355 5.028 2.498 0.291-0.259 1.099-1.19 2.157-4.171l16.189-45.652c1.284-4.417 0.452-7.499-2.619-9.682"/></g><g transform="translate(735.63 230.87)"><path d="m0 0c-0.814-0.896-1.618-1.594-2.264-1.986-2.552-1.401-4.552-1.274-6.493 0.428-3.555 3.083-5.534 6.219-5.889 9.325 0.223 5.102 1.502 9.245 3.809 12.32 0.287 0.185 0.566 0.381 0.832 0.581 0.362 0.269 0.785 0.603 1.334 1.055 1.752 1.539 3.172 2.756 4.258 3.654 0.975 0.807 1.624 1.298 1.934 1.509 4.487 1.839 6.714 2.161 7.796 2.107 2.308-0.084 4.141-3.397 5.274-6.162l3.399-5.651c1.02-1.904 0.529-2.704-0.731-3.516l-0.396-0.319c-0.321-0.324-0.671-0.744-1.069-1.287-0.253-0.345-0.582-0.721-1.038-1.184l-0.107-0.123c-5.32-6.687-8.442-9.303-10.126-10.32zm16.198 0.719c2.126 2.208 2.958 2.979 3.375 3.315 3.042 2.826 6.566 4.084 10.468 3.771l0.215-0.049c2.25-0.735 5.612-0.813 8.896 2.978 3.104 3.738 1.438 6.283 0.474 7.278-0.135 0.167-0.289 0.324-0.472 0.48-0.069 0.059-0.177 0.164-0.371 0.348l-0.256 0.23c-0.543 0.411-2.027 1.23-4.066-2e-3 -2.194-1.235-5.208-1.872-9.109 4.091-0.074 0.903-0.405 1.91-1.012 3.082-0.981 1.781-1.757 3.298-2.307 4.51-0.536 1.179-0.969 2.2-1.319 3.123l-0.124 0.255c-1.674 2.765-3.362 5.306-5.015 7.547-1.644 2.24-3.361 4.235-4.971 5.779-3.172 4.083-8.23 6.636-15.116 7.598l-0.173 0.025-1.523-0.122c-0.522-0.045-1.028-0.106-1.479-0.18-8.881-1.234-16.633-5.703-23.044-13.282l-0.355-0.421-1.247-5.073c-0.334-1.635-0.052-4.585 5.569-5.964 0.862-0.216 1.783-0.259 2.797-0.109 3.057 0.571 5.015 2.424 5.495 5.114 0.369 1.491 0.929 2.902 1.669 4.202 0.582 1.032 2.259 2.86 6.924 5.725 4.202 0.744 7.313-0.687 9.748-4.454 0.168-0.278 0.657-1.085-0.094-2.981l-8.957-5.419c-6.785-4.104-12.359-11.377-16.569-21.616-1.223-2.071-1.767-4.329-1.618-6.69 0.234-5.133 3.257-9.593 8.981-13.254l0.452-0.225c0.48-0.178 0.998-0.375 1.553-0.6 0.617-0.248 1.249-0.485 2.038-0.75 2.498-0.691 4.912-1.042 7.177-1.042 3.665 0 7.022 0.908 9.978 2.697 6.573 3.974 11.099 7.391 13.388 10.085"/></g><g transform="translate(809.69 296.84)"><path d="m0 0-1.01 0.143-0.243-0.196c-0.222 0.138-0.552 0.376-1.006 0.781l-0.689 0.428c-0.462 0.186-2.444 1.372-8.559 8.845-0.698 0.846-1.261 1.524-1.693 2.035-0.347 0.408-0.635 0.738-0.862 0.987-0.182 0.31-0.4 0.598-0.646 0.859l-0.127 0.234c-2.637 4.317-3.019 8.744-1.184 13.515 2.102 5.222 5.744 8.432 11.132 9.805l1.837 0.038 0.891-0.019c0.19-3e-3 0.365-0.022 0.614-0.074 2.377-0.403 4.776-1.475 7.127-3.184 2.46-1.786 4.675-3.98 6.581-6.523 1.9-2.531 3.324-5.21 4.232-7.964 0.858-2.588 1.048-5.012 0.57-7.168-0.219-0.896-0.525-1.758-0.909-2.561-0.442-0.918-0.925-1.851-1.403-2.716-3.553-5.865-8.213-8.177-14.653-7.265m18.505-4.947 0.532 0.164 0.401 0.387c4.108 3.943 6.925 9.499 8.345 16.399 0.244 0.852 0.684 3.265 1.946 14.435l0.125 1.097-0.76 0.792c-0.041 0.044-0.086 0.108-0.143 0.191-0.113 0.166-0.237 0.366-0.388 0.628-0.91 1.552-1.652 2.805-2.223 3.76-0.697 1.166-1.177 1.854-1.605 2.299-5.967 6.214-12.866 10.016-20.56 11.311-12.144 1.569-21.346-1.64-27.404-9.656l-0.529-0.849c-0.169-0.265-0.36-0.556-0.595-0.889-2.233-3.26-4.951-5.705-8.077-7.271-1.158-0.265-2.387-0.705-3.73-1.345-2.694-1.49-5.311-4.698-7.995-9.809l-0.225-0.627c-0.401-1.986-0.016-3.758 1.071-5.071 1.076-1.423 2.258-1.798 3.062-1.862 1.037-0.079 2.079 0.29 2.899 1.026 0.149 0.073 0.498 0.223 1.206 0.443l0.461 0.201c0.196 0.111 0.358 0.196 0.474 0.245 0.155 0.061 0.301 0.113 0.537 0.192 1.302 0.496 2.267 0.242 3.336-0.871l37.871-39.437c3.652-3.804 3.782-5.226 3.785-5.375l0.06-0.478c1.407-6.172 2.473-7.922 3.418-8.896l0.128-0.116c0.687-0.568 1.53-0.87 2.437-0.87 2.408 0 4.914 2.109 6.828 3.946l14.452 13.879-1.628 1.699v1e-3c-1.788 1.863-3.525 2.787-5.309 2.823-1.528 0.025-3.081-0.397-4.328-1.174-0.477-0.249-0.944-0.475-1.419-0.674-0.511-0.215-1.044-0.428-1.406-0.572-0.276-0.077-1.126-0.158-2.926 0.701-1.844 0.97-3.877 2.662-6.07 5.056l-4.129 4.304c-0.323 0.691-0.574 1.297-0.746 1.802l-0.167 0.492c-0.046 0.136-0.088 0.261-0.126 0.373 0.194 0.322 0.692 1.006 1.919 2.185 2.792 2.681 5.283 4.414 7.195 5.011"/></g><g transform="translate(824.37 1054.5)"><path d="m0 0c-1.868-2.702-6.83-5.966 1.594-5.855 5.222 0.068 5.033 3.5 5.969 7.259 1.497 6.003-5.803 7.602-4.92 13.052h-12.25c2.27-5.564 4.733-10.974 9.607-14.456"/></g><g transform="translate(634.87 69.455)"><path d="m0 0-12.502-0.971c5.528-0.904 9.233-0.281 12.502 0.971"/></g><g transform="translate(189.85 16.964)"><path d="m0 0c-1.845 0.545-3.659 0.936-5.521 1.451 0.369-0.102 0.669-0.184 0.938-0.258 1.232-0.304 2.139-0.586 0 0-0.653 0.161-1.392 0.328-1.811 0.373-7.656 0.832-13.476 1.638-17.478 2.175 1.196-0.16-2.779 0.375-5.406 0.735-0.859 0.052-6.813 0.699-6.298 0.665-3.285 0.219-6.569 0.26-9.858 0.097-0.313-0.058-0.653-0.123-1.038-0.196-4.184-0.799-8.361-1.659-12.568-2.335-10.332-1.657-20.016-2.406-30.002-1.132 1.02-0.61 2.1-1.132 3.29-1.493 4.496-0.888 8.953-1.58 12.877 0.792 0.776-0.189 1.546-0.393 2.295-0.645 5.207-1.115 10.353-1.648 15.205 1.513 0.537 0.479 0.862 0.998 1.092 1.535 6.133-0.372 12.269-1.585 18.397-0.525 3.039-0.781 6.01-1.903 8.844-3.706 11.202-0.974 22.418-1.181 33.64-1.157-0.515 0.171-1.022 0.365-1.54 0.528-1.675 0.549-3.37 1.084-5.058 1.583"/></g><g transform="translate(25.402 191.61)"><path d="m0 0c-0.031 0.132-0.062 0.265-0.093 0.396 0.332-5e-3 0.651 2e-3 0.951 0.026-0.27-0.151-0.53-0.306-0.858-0.422m49.115-159.26c-5.186 0.541-10.371 1.098-15.551 1.711-0.781 0.093-1.493 0.2-2.205 0.307-0.779 9.699-3.048 19.346-7.286 29.659-1.263-10.802 0.091-20.109 2.983-28.799-10.224 2.661-10.672 8.638-10.883 24.395-0.195 14.645 4.324 31.822-7.236 44.843-0.174 2.133-0.348 4.266-0.522 6.399l1e-3 1e-3c5.2 7.835 12.699 14.87 9.755 26.093-3.581 13.656 3.966 20.018 13.486 23.569 4.708 1.756 6.673 6.437 10.913 7.99 1.256 1.507 1.56 3.088 1.214 4.72l0.671 2.606c1.947 1.386 3.482 3.182 4.033 5.958l-2.93-1.67 1.152 4.479c-1.051-1.834-2.209-3.611-3.035-5.553-1.17-0.667-2.339-1.333-3.508-2-1.084 0.386-2.231 0.556-3.436 0.535-5.013-0.524-9.461-2.75-13.787-5.418-0.775-0.485-1.458-0.802-2.078-1.007l-3.001 4.016c1.757 9.817-2.393 17.608-6.169 25.529h-11.321c0.243 0.744 0.516 1.472 0.861 2.161-0.895-0.668-1.674-1.398-2.391-2.161h-1.17c-0.111-0.605-0.222-1.21-0.332-1.815-1.787-2.522-2.821-5.44-3.265-8.668 0.886 0.405 1.621 0.896 2.231 1.453-0.356-4.655 0.162-9.236 3.082-13.612 0.14-4.476 0.28-8.95 0.42-13.426-0.432-1.062-0.864-2.126-1.295-3.187-3.756 2.382 0.309 8.958-7.992 12.218 2.482-7.285-1.368-14.235 8.024-15.866 0.365-1.382 0.635-2.77 0.866-4.162-2.258-0.379-1.172-2.772-1.414-4.3-0.112-0.706 0.049-1.471 0.169-2.195 0.754-4.54 1.467-9.075 1.973-13.611-0.017-0.796-0.035-1.592-0.046-2.388-1.528-7.547-1.242-15.114-0.329-22.69-0.341-1.874-0.769-3.75-1.297-5.63-0.953-3.388-0.084-7.36 0.328-11.021 0.043-0.38 0.203-0.833 0.418-1.28 0.175-1.024 0.38-2.047 0.654-3.071 0.039-1.148 0.077-2.296 0.116-3.444v-1e-3c0 1e-3 -1e-3 1e-3 -1e-3 1e-3 0.029-6.635 0.057-13.268 0.084-19.903-0.351-1.217-0.702-2.434-1.053-3.652-1.833-1.1-3.665-2.202-5.498-3.302-0.071-5.286-0.115-10.557 5.648-12.731 0.23 1.083 0.478 2.161 0.741 3.236 0.719-0.45 1.475-0.808 2.266-1.074 0.215-3.076 0.43-6.152 0.643-9.229 1.01-6.838-0.643-14.151 3.029-20.517 1.66-5.715 6.968 0.779 9.123-3.28 3.003-0.023 6.039-0.14 8.176 2.185 0.726-0.062 1.451-0.136 2.197-0.097 9.228 0.199 18.498-0.758 27.66 1.193 0.071 0.034 0.145 0.063 0.216 0.096 6.058 0.089 12.1 0.634 18.107 2.206-1.618 0.298-3.248 0.649-4.892 1.065-7.461 1.885-13.327 6.35-17.317 12.136"/></g><g transform="translate(864.48 1059.5)"><path d="M 0,0 C 1.301,0.046 3.447,0.891 3.687,1.84 4.366,4.539 2.345,5.568 0.26,5.807 -1.594,6.02 -3.685,6.352 -4.374,3.563 -3.864,0.95 -2.053,-0.072 0,0"/></g><g transform="translate(63.058 84.643)"><path d="m0 0c-9.36-2.943-6.733-9.263-7.392-14.027 2.142 4.064 4.285 8.13 7.392 14.027"/></g><g transform="translate(55.666 70.611)"><path d="m0 0c-1.52-0.072-3.157 0.229-4.537-0.291-3.593-1.355-1.596-2.81 0.215-3.887 3.905-2.322 7.874-4.516 12.676-7.252-0.859 7.418-6.612 7.33-8.354 11.433v1e-3 -1e-3z"/></g><g transform="translate(853.07 1052.7)"><path d="m0 0c1.355-0.166 3.104 0.6 2.042 2.698-0.586 1.159-2.033 1.795-2.84 2.458-2.061-0.364-3.333-1.397-2.518-3.118 0.5-1.06 2.119-1.892 3.316-2.038"/></g><g transform="translate(658.51 1054.9)"><path d="m0 0c0.8 0.379 1.873 1.685 1.77 2.381-0.184 1.243-1.167 2.343-1.816 3.503-0.969-0.987-1.937-1.973-2.778-2.83 0.465-2.136 0.624-4.097 2.824-3.054"/></g><g transform="translate(38.59 887.97)"><path d="m0 0v-12.817c-1.23-1.788-2.123-3.577-2.698-5.365 1.171-0.196 2.343-0.382 3.51-0.585 0.941-0.163 1.886-0.36 2.832-0.565-1.51 6.48-3.597 12.981-3.644 19.332"/></g><g transform="translate(443.15 6.2275)"><path d="M 0,0 C 10.444,-2.7 14.522,6.126 19.323,13.644 11.35,11.87 8.031,1.67 0,0"/></g><g transform="translate(351.6 11.482)"><path d="M 0,0 C 4.29,-5.575 10.137,-2.565 15.298,-3.339 11.003,2.206 5.158,-0.793 0,0"/></g><g transform="translate(835.84 112.81)"><path d="m0 0c0.27-2.005 1.284-3.89 2.002-5.89 1.344 0.716 2.717 1.338 2.684 1.446-0.626 2.058-1.031 4.428-2.269 5.976-1.71 2.14-2.616-0.051-2.417-1.532"/></g><g transform="translate(889.5 622.26)"><path d="m0 0c-0.779 0.336-1.558 0.672-2.337 1.009-0.852-1.202-2.322-2.344-2.424-3.617-0.192-2.417-2.923-6.353 1.462-6.688 0.899-0.069 2.189 6.036 3.299 9.296"/></g><g transform="translate(896.56 179.67)"><path d="m0 0c-2.746-0.318-1.87-3.049-2.144-5.005 0.424-1.303-0.031-3.992 2.345-2.491 1.07 0.677 1.9 2.742 1.918 4.192 0.014 1.152-1.474 3.378-2.119 3.304"/></g><g transform="translate(505.45 1045.5)"><path d="M 0,0 C 1.06,8.319 -5.097,11.877 -9.207,16.785 -16.178,4.566 -10.774,0.511 0,0"/></g><g transform="translate(.1231 1022)"><path d="M 0,0 H 3.11 C 3.101,5.596 3.091,11.193 3.081,16.789 -2.023,12.093 0.773,5.653 0,0"/></g><g transform="translate(64.575 194.3)"><path d="m0 0c-2.05 0.51-4.167-0.064-4.517-2.73-0.428-3.26 1.684-4.762 4.186-5.676 2.297-0.292 4.075 0.85 4.571 3.123 0.779 3.558-1.791 4.675-4.24 5.283"/></g><g transform="translate(167.42 444.52)"><path d="m0 0c-9e-3 -0.059-0.014-0.109-0.016-0.168-0.134-3.803-0.127-19.208-1.538-35.024 5.033-5.885 9.89-11.514 14.666-16.996 1.437 27.369-0.623 64.063 2.213 74.604 0.033 0.122 0.047 0.24 0.044 0.367-0.461 22.806 6.365 44.656 10.078 66.78 0.131 0.781 0.245 1.563 0.373 2.344 0.65-0.021 1.301-0.04 1.951-0.06 1.232 0.013 3.225-1.593 3.453 0.551 0.182 1.713-1.98 1.415-3.357 1.354-0.562 0.139-1.124 0.278-1.686 0.418 1.081 6.698 2.093 13.402 3.015 20.115 6.52-3.614 12.879-7.568 19.45-11.073 3.492-1.862 6.845-4.62 13.147-2.431-10.943 6.069-21.49 11.886-32.136 17.005 0.403 3.007 0.804 6.014 1.183 9.024 0.431-0.13 0.849-0.208 1.238-0.21 2.526-9e-3 3.491 1.292 3.661 3.929-0.843 2.429-1.692 5.06-3.626 6.763 0.051 0.428 0.106 0.856 0.157 1.285-0.417 0.888-0.865 1.784-1.348 2.689-2.441 4.572-5.062 9.126-7.826 13.677-1.325-7.599-2.652-15.197-3.957-22.799-0.174-1.009-1.288-1.564-2.186-1.072-0.335 0.184-0.646 0.341-0.942 0.48 0.667-0.494 1.34-0.956 2.008-1.283 0.476-0.233 0.772-0.729 0.798-1.258 0.105-2.133 0.125-4.253 0.108-6.369-5.482 2.334-11.04 4.438-16.73 6.251 2.424 15.876 4.582 31.789 6.437 47.742-0.633 0.874-1.241 1.746-1.888 2.622-1.952-15.275-5.13-30.366-10.424-45.117-0.265-0.739-0.488-1.479-0.72-2.22-2.091 0.929-4.162 1.92-6.332 2.588-1.203 0.37-3.325 0.772-3.568-1.215-0.108-0.884 0.122-1.624 0.618-2.158-1.026-0.08-2.054-0.203-3.086-0.375-2.457 0.255-5.242 2.431-7.479-0.989 0.042 0.194 0.083 0.388 0.125 0.582-0.062-0.216-0.113-0.436-0.173-0.652-0.029-0.046-0.059-0.081-0.088-0.129 0.017-8e-3 0.03-0.016 0.048-0.024-1.357-4.897-2.353-9.909-3.415-14.907 0.497 1.955 0.966 3.913 1.476 5.864 0.694 3.002 1.327 6.015 1.975 9.024 0.968-0.451 1.604-0.967 2.217-0.949 1.709 0.049 3.411 0.34 5.115 0.536 3.696-0.819 7.418-1.546 11.131-2.306-1.483-6.273-2.107-12.565-2.412-18.843-2.511 1.432-5.032 2.707-7.73 3.71 2.76-3.662 4.934-6.022 7.578-7.662-0.124-3.932-0.174-7.856-0.28-11.762-0.416-15.099-7.419-65.529-13.426-103.16 0.47-0.561 0.934-1.113 1.4-1.668 3.04 25.285 6.436 52.375 7.346 56.639 4.081 19.106 7.772 38.274 11.093 57.495 1.858-0.463 3.996-0.842 6.572-1.198-2.168 1.251-4.185 2.502-6.137 3.718 1.202 7.03 2.365 14.065 3.46 21.11 2.487-0.584 4.959-1.217 7.4-1.951 3.387-1.018 6.647-2.298 9.837-3.729-0.264-7.714-1.241-15.327-2.553-22.893-2.398 0.594-4.797 1.189-7.195 1.783-0.869 0.715-1.748 1.394-2.973 0.818-0.579 0.184-1.158 0.369-1.737 0.554-0.276-1.406 0.716-1.423 1.649-1.505 0.93-0.542 1.758-1.439 3.01-0.87 2.014-2.065 4.266-3.327 6.658-4.116-2.762-14.894-6.589-29.639-8.534-44.65-2.113-16.247-4.775-32.422-7.19-48.629"/></g><g transform="translate(173.89 361.79)"><path d="m0 0c1.734 1.612 3.045 4.724 4.049 8.858-2.923 0.348-5.879 0.608-9.004 0.878-3.952 0.342-8.061 0.702-12.213 1.282-1.901-2.27-4.144-3.331-6.801-2.707-0.052 0.013-0.518-1.729-1.052-3.757-0.215-0.818 0.278-1.673 1.104-1.849 5.1-1.082 10.853-4.008 15.893-4.717l-0.853-0.843c0.282-0.801 0.564-1.603 0.846-2.405 0.537 0.383 1.203 0.666 1.586 1.167 0.872 1.141 0.236 1.58-0.483 1.977 2.602-0.191 4.981 0.306 6.928 2.116"/></g><g transform="translate(48.902 726.8)"><path d="m0 0c0.051-8.025-0.101-15.947-0.436-23.788 0.911 2.137 1.826 4.272 2.737 6.409-0.379 5.827-1.201 11.596-2.301 17.379"/></g><g transform="translate(140.69 796.9)"><path d="m0 0c0.44-0.126 0.849-0.288 1.275-0.431 2.649 6.884 5.372 13.74 8.226 20.549 0.55 1.019 1.106 2.038 1.656 3.054-1.375 2.913-1.791 5.827-1.643 8.718-2.666-8.27-5.428-16.508-8.251-24.727 0.108-2.716-0.457-5.121-1.263-7.163"/></g><g transform="translate(140.05 600.65)"><path d="m0 0c-1.08 1.311-1.878 2.823-2.32 4.61 2.987 17.311 6.508 34.482 10.445 51.544-1.11 1.649-2.231 3.411-3.327 5.279-0.351-0.391-0.684-0.795-1.069-1.161-1.952-12.11-5.976-23.614-10.978-34.83 0.751-1.364 1.374-2.79 1.703-4.376 0.876-26.514-11.128-49.889-18.295-74.486 1.414 0.628 3.019 1.079 4.84 1.231 7.106 20.525 13.394 38.156 18.096 50.469 0.228 0.6 0.556 1.164 0.905 1.72"/></g><g transform="translate(106.85 408.7)"><path d="m0 0c-1.995-9.703-3.924-19.094-5.84-28.451 2.542 8.922 4.874 17.888 7.027 26.893-0.369 0.585-0.741 1.169-1.106 1.753-0.026-0.065-0.055-0.13-0.081-0.195"/></g><g transform="translate(91.65 339.1)"><path d="m0 0c-5.368-22.148-10.918-45.052-13.514-67.711l-0.254-2.221-0.486-0.723c4.049-0.717 8.107-1.412 12.177-2.066-6.282 4.185-0.567 52.434 4.596 83.174-0.839-3.509-1.682-7-2.519-10.453"/></g><g transform="translate(37.459 825.02)"><path d="m0 0c0.368 0 0.717-0.027 1.068-0.052 6.291 9.043 12.642 18.043 19.277 26.831 0.476 1.984 0.904 3.974 1.309 5.969-1.067-2.075-2.502-4.031-3.954-5.932-6.766-8.858-13.317-17.876-19.764-26.969 0.676 0.095 1.359 0.153 2.064 0.153"/></g><g transform="translate(60.653 866.3)"><path d="m0 0c0.141 0.891 0.276 1.785 0.407 2.679-0.38-0.011-0.769-0.012-1.187 0.021 0.376-0.928 0.625-1.825 0.78-2.7"/></g><g transform="translate(55.059 809.8)"><path d="m0 0c0.336-0.539 0.634-1.08 0.943-1.621 1.176 2.288 2.338 4.582 3.525 6.865-0.648 4.402-1.765 8.77-3.577 13.114-0.679 1.626-1.082 3.218-1.307 4.765-1.528-2.861-3.063-5.717-4.574-8.587v-6.876c1.421-1.932 2.793-4.13 4.256-6.481z"/></g><g transform="translate(10.924 990.71)"><path d="m0 0c0.154-5.622 0.152-11.247 0.097-16.874 0.155-0.287 0.341-0.552 0.485-0.847 1.332-2.743 2.46-5.127 3.425-7.264 0.458-1.017 0.282-3.668 0.67-4.584 0.367-0.865 1.302 1e-3 1.614-0.794 2.866-7.316 3.571-12.173 4.907-22.341 0.248-1.886 0.518-3.956 0.827-6.258 1.206-8.976-2.927-30.703-2.205-39.729 0.323-4.027 0.635-8.056 0.999-12.08 0.156-1.725 0.37-3.459 0.509-5.19 0.029-0.247 0.054-0.52 0.075-0.825 1.126-0.222 2.259-0.412 3.392-0.598-0.172 3.728-0.33 7.456-0.522 11.183-0.639 12.44 0.626 24.323 2.573 36.096 8.056-3.486 17.865-8.177 23.758-13.662-2-1.888-3.525-4.887-5.009-6.641-0.487-0.573-0.956-1.156-1.442-1.727-0.221-9.066-0.48-18.125-0.697-27.192 3.727 4.336 7.489 8.642 11.12 13.053-0.509-0.975-0.84-2.165-1.268-3.15-0.987-2.268-0.029-4.969 2.01-4.454 1.751 0.441 2.971 3.412 4.617 5.509-0.768 1.543-1.218 3.646-2.003 3.809-1.02 0.213-1.741 1e-3 -2.307-0.419 0.987 1.213 1.972 2.429 2.932 3.664 1.208 1.555 2.181 3.234 2.848 4.947 1.864-1.3 3.754-2.719 4.709-3.009 0.29 3.896 1.57 19.911 1.838 23.882 0.692 10.276 0.61 18.89 1.837 29.392 0.339 6.145-2.893 6.56-2.689 12.667 0.478 14.293-3.152 18.705-0.986 33.259 1.028 6.898-2.49 14.697-1.837 22.045 0.029 0.321 0.431 1.073 1.032 2.052 2.161 2.485 6.965 4.525 7.226 7.459 0.599 6.735 1.21 13.545 2.151 20.362-2.682 0.179-5.329-1.164-7.932-4.363-4.441-3.003-8.818-1.905-13.179 0.253 2.325 0.511 4.651 1.021 6.975 1.532-1.049 0.756-2.097 1.513-3.146 2.27-3.396-0.157-7.06 0.525-9.21-3.536-1.014 0.06-2.029 0.119-3.043 0.179-21.461 7.83-30.427 1.251-36.212-26.572 1.429-7.102 0.864-14.322 1.061-21.504"/></g><g transform="translate(159.35 1042.3)"><path d="m0 0v2e-3c10.463-0.047 20.926-0.183 31.388-0.102 4.786 0.037 10.496-1.425 11.535 6.633-13.957-6.326-28.655-1.373-42.895-3.395-1.892 1.053-3.783 2.107-5.675 3.159 1.036-2.117 2.071-4.227 3.103-6.318 0.848 9e-3 1.696 0.02 2.544 0.021"/></g><g transform="translate(499 905.69)"><path d="M 0,0 C 0.162,-0.167 0.323,-0.336 0.485,-0.504 0.854,0.019 1.21,0.558 1.587,1.072 1.071,0.705 0.535,0.353 0,0"/></g><g transform="translate(481.9 897.7)"><path d="m0 0c-7.706-2.433-16.083-3.78-24.472-3.78-3.047 0-6.02 0.18-8.902 0.53 1.5-11.921 6.635-23.023 7.499-34.962 0.015-0.194 0.065-0.38 0.154-0.552 6.204-12.029 12.874-24.957 19.875-38.518 0 0.173 2e-3 0.336 3e-3 0.511 0.029 7.16 0.057 14.563 1.242 22.023 0.16 0.998 0.327 1.971 0.492 2.948-2.528 4.867-5.24 9.511-9.312 13.044-0.406 0.352-0.555 0.884-0.462 1.414 0.605 3.446-2.897 12.079 6.071 4.799 2.27-1.843 4.314-3.963 6.264-6.201 2.464 10.895-1.885 23.989 1.857 32.374-2.788 3.144 2.004 2.82-0.309 6.37"/></g><g transform="translate(537.72 823.93)"><path d="m0 0c0.974-0.626 1.933-1.266 2.871-1.932 1.176-0.836 2.729 0.28 2.297 1.656-0.352 1.124-0.607 2.29-0.815 3.475-1.43-1.103-2.882-2.168-4.353-3.199"/></g><g transform="translate(778.82 934.19)"><path d="m0 0c0.011 0.702-0.464 1.32-1.146 1.486-1.948 0.478-3.898 0.95-5.839 1.448-1.846 0.474-3.677 0.984-5.518 1.472-4.268-0.801-8.538-1.557-12.809-2.319-9.769 0.568-15.54-9.004-26.768-5.391-5.464-0.972-10.927-1.925-16.373-2.846 3.895 0.154 7.897 0.239 12.05 0.239h0.556c16.843-0.028 45.171-9.488 55.003-24.085 8.601-2.883 7.298-7.629 15.923-10.438-5.591 6.26-16.544 20.833-17.706 26.753 1.23 3.175 2.535 7.472 2.543 8.081 0.022 1.895 0.055 3.744 0.084 5.6"/></g><g transform="translate(726.02 430.51)"><path d="m0 0c0.193 0.133-1.048 1.305-2.945 2.938 1.282-2.128 2.33-3.362 2.945-2.938"/></g><g transform="translate(690.17 578.44)"><path d="m0 0c0.065 0.389 0.035 0.787-0.208 1.097-59.349 75.594-112.92 155.27-162.64 237.76-8.22-4.792-16.772-8.902-25.199-12.943-3.015-1.447-6.026-2.891-9.009-4.362l-5.179-2.553c18.847-36.475 44.798-77.204 72.744-118.65-2.392 6.082-4.491 12.313-7.451 18.113-4.114 8.071 7.086 15.521 6.415 24.676-0.064 0.214-0.127 0.424-0.191 0.638-2.006 3.718-4.019 7.44-6.052 11.202-0.349 0.645-1.122 0.945-1.822 0.726-4.836-1.522-4.23-5.725-4.579-9.494-0.25-2.747-2.023-4.576-4.75-4.568-2.871 9e-3 -4.164 2.28-4.419 4.837-1.491 15.338-20.084 26.85-9.883 45.249 1.079 1.941-4.449 7.957-7.441 11.654-4.696 5.792-10.148 11.091-11.255 18.999-0.205 1.466 1.699 2.27 2.655 1.141 21.001-24.818 38.993-51.735 55.669-79.609h-4e-3c3.6-4.843 7.091-9.773 10.827-14.508 7.052-8.948 12.742-18.153 7.325-30.103h6e-3c-6e-3 0 0.185-0.101 0.185-0.101v2e-3c12.207 6.906 15.818-1.006 18.505-10.505 0.083-0.167 0.165-0.33 0.249-0.497 3.695-4.818 7.385-9.637 11.074-14.455v-2e-3c10.706-7.357 17.758-17.481 22.329-29.477 5e-3 -3e-3 5e-3 -6e-3 0.011-9e-3 4.994-7.409 9.993-14.815 14.992-22.224v-9e-3c7.678-11.081 77.538-120.12 83.042-132.9 4.023 3.256-47.177 103.62-45.941 110.88"/></g><g transform="translate(571.41 659.74)"><path d="m0 0c7.234-12.224 14.468-24.449 21.701-36.676 0.201-0.34 0.24-0.743 0.162-1.13-1.178-5.801 7.93-4.238 7.616-10.09-0.221-4.096-0.656-10.402 7.255-8.237v-2e-3c0.979-0.832 1.956-1.665 2.932-2.499 0.578-0.494 0.673-1.333 0.269-1.976-5.003-7.949-2.492-14.747 3.956-20.945 0.101-0.139 0.203-0.278 0.303-0.417 2.382-4.95 4.763-9.9 7.144-14.854v4e-3c2.025-9.671 77.049-105.24 85.802-117.48 0.353-0.494 9.632-7.784 14.531-11.996-4.399 7.298-11.577 25.219-13.706 23.796-0.737-0.493-1.739-0.252-2.161 0.529-32.363 59.851-93.104 141.75-146.54 221.01 2.644-6.725 5.648-13.268 10.587-18.834 0.05-0.068 0.1-0.137 0.15-0.205"/></g><g transform="translate(535.5 986.84)"><path d="m0 0v-3e-3c0.052-0.31 0.133-0.586 0.196-0.882 0.779 0.121 1.556 0.245 2.342 0.352-0.846 0.179-1.693 0.351-2.538 0.533"/></g><g transform="translate(589.83 964.19)"><path d="m0 0c-0.66-0.724-1.352-1.402-2.032-2.095 0.509-0.152 1.015-0.309 1.524-0.462 0.101 0.878 0.256 1.738 0.508 2.557"/></g><g transform="translate(575.31 951.49)"><path d="M 0,0 C 0.911,-0.01 1.813,-0.066 2.706,-0.157 2.103,0.09 1.478,0.348 0.827,0.616 0.549,0.415 0.279,0.199 0,0"/></g><g transform="translate(598.45 940.83)"><path d="m0 0c-1.061 0.756-2.081 1.725-3.039 2.835-0.496 0.25-1 0.489-1.5 0.735 0.436-0.385 0.881-0.76 1.295-1.175 3.651-3.659 6.253-8.288 7.674-13.5 7.78-5.353 15.555-10.709 23.335-16.064 2.265 3.259 4.697 5.349 7.009 6.657-7.279 5.035-14.605 9.992-22.144 14.595-4.336 1.357-8.721 3.132-12.63 5.917"/></g><g transform="translate(671.89 921.67)"><path d="m0 0c-1.008-0.163-2.062-0.248-3.134-0.248-3.406 0-6.477 0.802-9.186 1.509-0.707 0.184-1.408 0.368-2.098 0.527l-3.966 0.91c4.389-2.372 8.741-4.802 13.072-7.264 1.263 1.598 2.967 3.184 5.312 4.566"/></g><g transform="translate(571.89 859.52)"><path d="m0 0c-1e-3 0-1e-3 -1e-3 -2e-3 -2e-3 -1.683-2.228-3.391-4.438-5.127-6.628-0.037-0.047-0.073-0.093-0.109-0.14-1.755-2.21-3.538-4.397-5.356-6.557-1e-3 -1e-3 -2e-3 -1e-3 -2e-3 -2e-3 2.053-1.803 4.095-3.619 6.164-5.406h6e-3c11.896-5.443 16.395-17.831 24.538-26.745 5.368-5.88 10.778-11.713 16.211-17.519-1.202 10.246-1.36 20.363-0.766 30.365-11.853 10.878-23.704 21.756-35.557 32.634"/></g><g transform="translate(866.64 272.98)"><path d="m0 0c0.036-0.834 0.071-1.669 0.107-2.504 0.179 1.213 0.354 2.428 0.527 3.643-0.089-0.402-0.287-0.784-0.634-1.139"/></g><g transform="translate(430.66 909.8)"><path d="m0 0c19.788-12.13 53.086-6.711 68.677 7.723 10.464 9.688 24.088 16.358 37.062 22.85 21.638 10.826 43.84 20.627 56.094 43.266 3.148 5.817 4.796 12.447 8.353 21.974-20.1-2.762-46.151-21.13-47.085-21.658-4.374-2.469-8.767-6.006-13.477-6.602-31.871-4.028-58.266-21.19-84.806-36.759-10.595-6.215-16.622-20.219-24.818-30.794"/></g><g transform="translate(632.49 906.4)"><path d="m0 0c-0.224-0.405-0.452-0.827-0.564-1.27-10.225-40.371-21.695-80.637-11.936-122.92 0.999-4.329 3.015-8.424 4.956-13.709 20.546 8.154 30.856 22.353 37.353 39.947 9.857 26.693 12.572 53.101-2.86 78.966-3.791 6.354-6.198 13.552-10.149 19.786-5.37 8.471-12.007 7.91-16.8-0.8"/></g><g transform="translate(912.57 835.7)"><path d="m0 0c0.87 3.087 0.26 7.284-1.305 10.196-2.14 3.983-5.347 7.61-8.75 10.663-20.537 18.433-41.87 35.978-55.246 61.045-4.711 8.828-27.643 13.245-34.37 9.339-0.1 4.014 1.678 11.853-0.704 13.437-7.304 4.856-9.208-2.287-12.48-7.675-9.918-16.331-9.398-22.608 4.589-36.617 4.568-4.574 8.206-10.099 12.91-14.506 11.458-10.733 20.073-25.88 39.712-24.094 3.819 0.347 7.894-5.842 12.344-7.995 11.417-5.521 23.005-10.735 34.782-15.422 2.407-0.957 8.146 0.308 8.518 1.629"/></g><g transform="translate(838.02 961.61)"><path d="m0 0c4.017-1.936 7.866-4.415 12.079-5.711 15.987-4.92 25.944-17.771 38.235-27.691 6.135-4.952 12.599-15.158 23.788-5.598 1.324 1.131 9.725-6.379 15.072-9.498 5.625-3.281 11.52-6.098 19.919-10.487-7.359 30.916-76.857 72.642-109.09 58.985"/></g><g transform="translate(875.1 715.26)"><path d="m0 0c-1.142-0.514-2.317-0.963-3.518-1.351 1.297-4.669 2.605-9.336 3.918-14.001-0.133 5.118-0.266 10.236-0.4 15.352"/></g><g transform="translate(865.56 691.78)"><path d="m 0,0 c 1.477,-6.596 2.403,-13.285 3.764,-19.895 0.03,0.323 0.064,0.646 0.093,0.969 C 5.125,-5.293 4.274,8.428 2.039,21.94 1.362,14.604 0.67,7.296 0,0"/></g><g transform="translate(758.54 37.125)"><path d="m0 0c3.594 3.274 8.07 4.228 13.707 5.722-3.826-6.261-9.441-4.214-13.707-5.722m62.174 49.85c-0.956-0.063-1.939-0.149-2.918-0.233 0.795 2.175 1.146 5.644 3.475 6.457-1.308 2.681-3.563 3.277-6.071 3.319 0.972-3.356-3.491-7.544-1.652-10.138-3.138-0.269-6.337-0.493-9.538-0.429-1.379 0.028-2.752 0.025-4.119 2e-3 2.659 2.086 5.458 4.592 9.15 7.39 0.941 1.07 1.884 2.139 2.825 3.21 0.095 2.235 0.189 4.47 0.283 6.707 3.645 5.048 14.828-4.649 13.896 1.32 0.521 0.925 0.664 1.915 0.431 2.971 3.835 17.233 3.614 6.289 9.93 14.856 4.505 6.113 9.404 10.613 13.107 13.553-6.786 1.942-12.237-0.589-18.503-8.103-1.687-2.02-4.035-1.916-5.585-1.851-0.58 0.024-1.318 0.058-2.244 0.035l-1.089-0.026c-1.883-4.577-3.499-12.911-6.722-13.77 1.873-14.705-19.601-2.852-15.209-16.94-1.935 0.047-3.87 0.095-5.805 0.143 2.783 5.29 0.341 8.969-3.964 9.923-1.79 0.397-5.878-3.282-6.276-5.643-0.651-3.866 2.868-5.024 6.162-4.926-0.546-1.31-1.091-2.618-1.636-3.927 1e-3 0 1e-3 0 1e-3 -1e-3 -1.272-1.079-2.547-2.16-3.823-3.24-2.956-0.024-4.988-1.765-6.717-4.111-5.362-1.107-10.64-2.578-15.853-4.345-4.115 5.198-4.124 3.293-13.867-4.011-5.897 5.171-11.67 13.421-18.273 0.875l-0.536 6e-3c0.458-0.535 0.939-1.105 1.43-1.69-1.05 0.508-2.088 1.049-3.115 1.619 0.043 0.027 0.083 0.06 0.126 0.088 0.519-5e-3 1.04-0.011 1.559-0.017-0.204 0.238-0.401 0.467-0.598 0.694 3.038 2.352 5.339 5.889 8.042 8.781-0.543 0.863-1.085 1.724-1.628 2.586-2.514 0.139-5.028 0.29-7.543 0.412-8.036 0.385-16.069 0.875-24.109 1.068-2.49 0.059-5.386-0.029-7.436-1.202-11.41-6.527-23.004-12.873-33.618-20.549-2.593-1.876-2.249-8.524-2.117-12.943 0.032-1.062 4.745-3.069 7.083-2.788 10.245 1.234 20.781 0.743 30.196 6.771 5.778 3.7 11.873 6.903 17.925 10.176 3.363-2.416 5.096 0.41 6.48 3.584 1.182 0.672 2.355 1.358 3.52 2.055 1.702-0.466 3.493-0.694 5.418-0.557 2.701-3.226 5.842-7.149 9.006-11.337-0.067-0.151-0.134-0.301-0.202-0.452-2.94-0.058-5.882-0.118-8.822-0.176-4e-3 2e-3 -7e-3 2e-3 -0.011 3e-3 2e-3 -1e-3 3e-3 -1e-3 4e-3 -3e-3 -1.917-0.044 0.074-4.53 3.663-10.83-3.413-6.908-7.109-13.672-11.219-20.226-2.462 1.381-4.935 2.741-7.433 4.057-4.848 2.553-10.241 3.832-11.051 10.718-0.257 2.18-2.575 4.119-3.949 6.169-0.396-2.534-0.778-5.07-1.198-7.598-0.08-0.479-0.315-0.931-0.5-1.455-8.883-1.085-18.714 3.958-26.06-3.786-4.026 1.479-7.678 2.822-11.33 4.164-0.298-0.785-0.597-1.571-0.895-2.357 0.748-0.526 1.496-1.053 2.244-1.581-0.505-0.537-1.011-1.197-1.518-2.018-3.554-3.132-7.817-3.83-12.157-4.268-3.629 2.85-7.258 4.397-10.885 4.412 5.867 4.304 12.01 8.439 9.155 18.137-2.077 7.057-0.271 13.182 7.204 17.152 3.205 1.702 5.757 5.367 7.646 8.686 1.731 3.042 3.129 6.176 4.306 9.37 1.311 0.427 2.596 1.326 3.803 3.146-0.998-0.432-1.984-0.638-2.952-0.731 3.803 11.509 4.916 23.758 7.25 35.653 0.794 4.046 0.876 8.415 0.235 12.47-0.274 1.732-4.182 4.651-4.831 4.273-4.133-2.41-9.048-4.825-11.425-8.654-7.824-12.598-16.82-24.742-19.2-40.099-0.32-2.068-3.607-4.884-5.805-5.171-1.989-0.259-3.884-0.029-5.32 1.197 1.555 0.014 3.092 0.047 4.616 0.027-1.838 0.098-3.655 0.523-5.508 0.968-0.602 0.86-1.077 1.977-1.345 3.489-1.158 6.568-2.541 14.411-6.802 18.848-9.695 10.097-21.072 18.618-32.052 27.423-3.956 3.171-8.478 1.901-10.471-2.542-1.278-2.851-1.56-7.172-0.317-9.952 5.149-11.523 11.104-22.683 16.627-34.041 1.163-2.39 2.255-5.008 2.51-7.606 0.548-5.583 0.528-11.22 0.741-16.836 0.814 0.052 1.627 0.104 2.44 0.156 0.29 5.025 0.58 10.049 0.869 15.075 3.593-2.395 5.775-5.179 7.232-8.302 4.245-9.104 7.29-10.623 15.985-8.573 1.081 5.832 1.618 11.093 3.271 15.974 0.411 1.213 5.018 2.327 6.656 1.478 2.196-1.136 4.755-4.264 4.696-6.47-0.106-3.909-2.067-7.768-2.917-10.556 0.496-0.422 1.065-0.835 1.654-1.249-0.644-0.299-1.287-0.601-1.955-0.857l2.859 0.223c2.052-1.419 4.188-2.919 4.906-4.93 0.935-2.615-0.448-7.335-2.526-9.389-2.028-2.004-8.1-3.486-9.167-2.297-5.812 6.477-8.133 1.994-10.56-3.378-5.741 5.789-10.612 4.77-16.453-2.021 5.053-3.96 9.541-7.795 14.351-11.168 3.264-2.288 6.657-3.507 10.043-3.457-3.495-3.978-7.694-4.092-12.187-2.587-2.828 3.791-5.769 1.094-8.679 0.093-1.79 1.464-3.562 2.81-5.234 3.122-2.072 1.898-4.905 0.459-7.605-0.399-6.451 2.556-13.059 5.645-15.985-3.764-1.4-0.326-2.798-0.65-4.198-0.971-10.383 3.32-20.651 7.465-31.864 4.907-1.329 2e-3 -2.658 3e-3 -3.988 4e-3 -3.973-2.24-8.104-4.258-12.932-5.997-2.426-0.873-4.891-1.675-7.371-2.446-2.972-0.079-5.794 0.113-7.805 1.458-7.093 4.737-12.744 3.481-19.004-0.33v-6.292h6.711c-5.024-1.05-10.08-1.96-15.128-2.741-4.987-2.19-10.267-3.899-15.824-5.365-1.206-0.286-2.384-0.667-3.544-1.108-0.295-0.142-0.597-0.268-0.894-0.406 0.062-0.028 0.123-0.057 0.185-0.085 0.373-3-6.216-2.179-3.061-6.706 16.558 2.867 32.549-4.257 48.995-3.344 1.021 0 2.04 2e-3 3.061 4e-3v1e-3c6.464 6.363 13.525 8.154 21.445 3.365 5.847 0.633 11.609 5.882 17.544-1.318 1.924-2.333 3.364 2.17 3.883 4.695 10.179 8.657 23.499-2.011 33.687 6.583 1.086 1.074 2.171 2.15 3.256 3.224 8.076 1.272 16.267-3.386 24.292 0.548 4.134 0.068 8.268 0.137 12.402 0.207 3.014-0.062 6.028-0.123 9.042-0.184 4.089-0.087 8.178-0.175 12.267-0.262 2.041 0.115 4.083 0.229 6.124 0.343 5.102-0.22 10.203-0.438 15.304-0.657 2.029 0.253 4.057 0.507 6.086 0.761 1.026-0.093 2.051-0.186 3.077-0.279 5.791 0.833 8.551 1.702 8.986 4.06 0.633-0.445 1.265-0.891 1.898-1.336h11.253c3.517-1.648 7.689-1.607 11.07-3.601-0.201-0.968-0.115-1.905 0.259-2.81-3.998 0.026-7.997 0.052-11.995 0.078 7.638-6.872 17.012-1.596 25.37-4.054 1.346-0.396 0.254 3.129-1.313 4.345 4.526 5.464 10.86-0.156 15.748 3.09 2.962-0.103 5.923-0.205 8.884-0.309 0.46-0.828 0.893-1.673 1.302-2.534-5.733-0.964-10.23-3.842-14.614-11.918 8.041 3.257 13.873 5.619 19.705 7.981 1.672 0.039 0.382 3.443-2.349 8.484 0.344-0.129 0.691-0.239 1.034-0.374 1.732-0.681 3.313-0.356 4.955 0.612 7.059 4.161 14.174 8.095 20.796 13.094 17.722 13.38 25.777 34.596 41.218 49.768 1.039 1.022 3.334 4.705-1.876 5.287"/></g><g transform="translate(857.53 402.22)"><path d="m0 0c-1.192 1.926-2.212 3.966-3.008 6.101l-4.326-12.736c-1.31-4.25-0.369-9.193-0.445-13.822-0.531-3.612 0.312-6.073 3.798-7.198 0.508 3.859 1.079 7.594 1.871 11.451 0.339 1.418 0.629 2.847 0.927 4.273-0.06 0.281-0.058 1.313 9e-3 3.162-0.049 3.077 0.385 6.003 1.174 8.769"/></g><g transform="translate(871.93 674.61)"><path d="m0 0c0.032-0.784 0.608-1.018 1.207-0.647 0.742 0.458 2.046 0.929 0.562 1.983-0.841-0.108-1.821-0.068-1.769-1.336"/></g><g transform="translate(873.62 676.01)"><path d="m0 0c0.03-0.021 0.043-0.038 0.072-0.058 0.027 3e-3 0.054 6e-3 0.08 9e-3z"/></g><g transform="translate(896.31 732.07)"><path d="m0 0c3.26 8.993-2.857 17.136 0.333 29.231-9.08-9.134-3.065-19.331-10.45-25.076-3.56-2.77-2.932-8.331 2.028-10.629 5.55-2.57 6.503 2.099 8.089 6.474"/></g><g transform="translate(886.1 795.21)"><path d="m0 0c-3.579-3.445-4.28-8.212 0.014-12.335 4.277 1.256-0.088 9.731 6.421 8.651-0.746-6.843-1.492-13.688-2.497-22.921 5.742 8.839 8.204 15.539 2.499 22.921-1.519 2.667-3.143 6.855-6.437 3.684"/></g><g transform="translate(856.23 735.93)"><path d="m0 0 2.622-8.216h2e-3c-0.418 2.957 1.057 7.095-2.624 8.216"/></g><g transform="translate(899.94 755.66)"><path d="M 0,0 C -1.92,-5.103 -1.409,-8.587 2.983,-13.244 5.701,-7.1 3.354,-3.895 0,0"/></g><g transform="translate(894.78 802.77)"><path d="m0 0c1.529 0.491 1.574 5.995-0.759 9.639-0.573-1.827-1.568-3.348-1.303-4.529 0.428-1.9-1.941-6.393 2.062-5.11"/></g><g transform="translate(779.77 1032.7)"><path d="m0 0c4.245 2.07 8.57 2.56 12.923 2.434 4.536 2.826 8.726 5.411 13.45 7.167-2.74-3.638-4.903-5.99-7.522-7.629 7.502-0.839 15.011-2.211 22.259 0.745 3.715-6.647 12.696 1.592 15.818-6.73-0.992-1.199-1.987-2.397-2.98-3.596-3.976-1.608-10.145 4.723-11.725-1.12-1.706-6.309 4.937-4.723 8.511-5.483 0.204-7.534 15.314-3.329 11.765-9.555 0 0-5.887-9.382-5.511-12.859 0.85-7.856 18.37-25.719 18.37-25.719 2.999 17.538 12.301 32.74 21.182 31.505 0.965-0.888 1.929-1.776 2.894-2.663 1.762-2.221 3.786-1.041 5.757-0.533 2.512-0.985 4.684-4.742 7.658-2.004 2.213 2.038 1.284 4.928-0.285 7.116-2.066 2.884-4.389 5.548-6.602 8.305-0.28 1.049-0.455 2.118-0.524 3.207-2.094 7.634 9.262 17.493-3.222 23.405-0.719 0.585-1.512 0.998-2.379 1.239-0.081 2.489 0.1 5.126-2.82 6.014-13.582 4.717-27.077 1.259-40.589-0.52-1.017-0.091-2.032-0.181-3.048-0.271-11.81 0.393-23.609 0.603-35.257-1.946-0.818-0.152-1.636-0.327-2.45-0.54-4.79 0.177-9.579 0.354-14.369 0.531-2.217-0.568-6.038 0.434-5.8-3.025 0.186-2.725 4.004-7.715 4.496-7.475"/></g><g transform="translate(676.01 897.47)"><path d="m0 0c19.847-27.928 40.128-55.548 60.514-83.09 1.406-0.096 2.708-0.202 3.832-0.321 9.446-0.997 19.319-4.505 28.519 1.949 1.248 0.876 3.723 0.603 4.408-1.651-0.043 1.245-0.082 2.49-0.113 3.735 0.813 0.086 1.624 0.173 2.437 0.259-3.246 22.416-5.577 45.015-10.033 67.188-3.453 17.181-25.06 33.523-42.617 33.552-12.918 0.021-25.988-0.715-38.716-2.798-12.191-1.995-15.419-8.708-8.231-18.823"/></g><g transform="translate(773.68 803.33)"><path d="m0 0c-0.097 3.191-0.23 6.384-0.349 9.576l-2.097-3.195c-0.848 0.157-1.697 0.313-2.545 0.469-9.852-1.04-19.692-0.449-29.527 0.618 0.764-1.031 1.53-2.06 2.293-3.091 9.275-1.265 18.549-2.531 27.824-3.797 1.466-0.193 2.934-0.386 4.401-0.58"/></g><g transform="translate(758.54 793.59)"><path d="m0 0c-2.923 1.461-5.935 2.455-8.99 3.209 3.307-4.459 6.613-8.919 9.923-13.377 1.886-2.542 6.124-3.339 9.268-4.948 1.718 3.49 4.728 6.916 4.905 10.484 0.174 3.496 0.189 7 0.128 10.507-6.461 0-12.921-1e-3 -19.383-2e-3 5.188-4.476 11.586-4.222 17.6-5.344-4.404-2.371-9.627-2.44-13.451-0.529"/></g><g transform="translate(412.65 825.82)"><path d="m0 0c2.609-9.268 5.32-18.493 8.385-27.563 2.199-0.586 4.408-1.019 6.632-1.156-4.954 9.595-9.951 19.172-15.017 28.719"/></g><g transform="translate(591.82 543.57)"><path d="m0 0c-1.257 1.621-2.446 3.274-3.599 4.945 1.674-1.505 3.261-3.05 4.53-4.924-0.316-0.012-0.606 0-0.931-0.021m30.244-129.58c0.753-3.384 2.328-6.297 3.893-9.539 0.715 7.966-3.622 16.355 2.66 24.011 0.367 0.447 0.562 1.107 0.622 1.863 8.547-9.514 22.408-29.13 31.977-40.597l-2.523-1.137c-1.04-1.387-4.295-0.958-3.584-3.785 0.237-0.944 1.622-2.079 2.635-2.255 2.384-0.417 4.308 0.751 5.551 2.864 0.222 0.378 0.48 0.707 0.719 1.061 3.484-3.892 6.102-6.144 7.193-5.495-0.678 1.05-2.374 4.178-4.7 8.606 3.607 3.669 8.266 5.965 12.923 8.353l-13.994-6.309c-11.215 21.481-34.179 67.315-36.271 72.59-0.972 4.651-1.71 9.322-2.374 14.002-9.938 20.246-17.073 41.958-31.363 59.914-0.026 0.332-0.051 0.665-0.077 0.997 2.19-2.007 6.492-1.057 8.774-0.031 6.582 2.96 0.243 9.403 2.534 13.978 0.717 1.43-0.421 3.432-2.474 3.895-0.664 0.15-1.471-0.12-2.164-0.348-5.649-1.859-11.569-1.21-17.819-1.835-12.705 21.104-19.099 45.234-29.814 67.304-24.945 51.35-49.049 103.1-73.046 154.9-7.551 16.315-21.794 47.065-29.358 63.373-2.354 5.087-4.809 10.394-12.46 12.48 10.112-20.889 17.536-42.766 28.051-63.578 2.949-5.842 8.486-16.794 12.053-23.85 35.778-70.814 71.245-141.8 100.43-215.69 4.265-10.807 14.157-23.264-0.523-34.472-3.36 0.134-5.982 1.757-8.275 4.053-9.761 15.553-19.041 31.358-27.978 47.343 1.989 0.364 3.977 0.727 5.967 1.09l-0.444 2.886c-2.353-0.405-4.706-0.809-7.058-1.213-24.104 43.363-45.684 88.061-67.084 132.9-14.667 30.743-29.76 61.318-45.383 91.666-2.273 0.201-4.541 0.336-6.768 0 5.741-16.246 12.791-31.915 22.746-46.287 11.406-16.48 20.338-34.227 29.646-51.84 2.764-5.224 5.157-10.223 1.892-16.034-0.704-0.197-1.369-0.325-2.026-0.448 0.155-0.078 0.282-0.182 0.436-0.259 14.17-2.411 14.626-15.966 18.776-25.234 13.11-29.247 29.582-56.741 44.555-85.018-1.185-0.204-2.368-0.407-3.552-0.61 0.179-1.007 0.357-2.013 0.536-3.019 1.497 0.273 2.993 0.546 4.49 0.82 5.937-11.313 11.617-22.759 16.711-34.51 3.99-9.207 4.895-18.828 8.235-27.947 2.199-18.291 11.761-34.106 17.227-51.3 4.808-9.713 13.465-17.767 12.855-29.814 0.081-0.452 0.1-0.908 0.154-1.364 6.103 3.144 12.151 6.374 18.166 9.67-10.769 20.552-19.533 42.126-27.098 64.312 1.462 1.318 2.924 2.635 4.379 3.946 6.699-14.762 14.299-29.112 21.688-43.562-0.359 0.198-0.735 0.382-1.142 0.536 0.135-3.069 1.801-5.521 3.107-8.176 3.726-7.576 8.548-15.987 7.972-23.772l-1.421 0.083c0.442-0.304 0.877-0.647 1.303-1.061 3e-3 -3e-3 5e-3 -4e-3 8e-3 -7e-3 -0.041-0.304-0.072-0.611-0.132-0.914-0.474-2.413-0.489-4.492-0.253-6.412-1.692 2.856-3.338 5.734-4.949 8.629l4.023-0.235c-1.503 1.037-3.095 1.478-4.751 1.556-0.599 1.09-1.217 2.17-1.801 3.269-5.875-3.208-11.789-6.353-17.75-9.415h0.012c8.123-10.576 9.422-24.099 14.578-35.961-1.201 1.288-2.491 2.493-3.916 3.599 3.551-6.033 1.525-16.157 13.548-17.119-2.311 3.589-4.419 6.991-6.762 10.07-0.559 4.735-1.111 9.497-1.661 14.338l-0.692 6.095c1.635 4.109 6.572 10.083 10.415 13.394"/></g><g transform="translate(14.564 589.74)"><path d="m0 0c1.833-12.033 3.547-21.195 1.003-30.277 1.37 9.379-2.042 18.315-1.003 30.277m10.451 27.415c11.808 46.758 14.921 94.03 11.63 142.04-0.913 13.315 1.604 26.865 2.723 42.831 8.001-9.822 4.413-19.688 6.11-28.058 4.995-24.659 14.028-48.608 13.259-74.544-0.765-25.829-3.252-51.516-4.239-77.298-0.262-6.813-5.577-9.312-9.409-12.335-10.884-8.591-14.035-19.779-12.887-32.625 1.118-12.501-0.159-24.358-8.373-38.509 0.735 28.27-5.131 53.485 1.186 78.495m53.763 215.88c3.774-14.617 2.16-29.411 1.644-43.916-1.652-46.478-4.409-92.92-6.955-139.36-0.438-7.993-2.264-15.904-2.837-23.897-0.479-6.676-1.899-11.454-10.96-7.815 8.32 70.54 11.819 142.94 19.108 214.99m1.623 99.702c0.059-27.589-1.975-54.976-7.176-82.057-3.33 27.905 4.625 54.72 7.176 82.057m-22.136-478.79c0.236 26.371 3.646 52.304 11.219 77.659-4.557-25.772 0.163-52.828-11.219-77.659m2.32-173.74c-0.76-1.914-1.515-3.831-2.273-5.747-1.748-0.482-3.179-1.562-3.542-4.544-0.244-2.002-0.489-4.006-0.766-5.997-1.306-3.076-2.649-6.134-4.109-9.134-0.818-1.681-4.671-1.32-8.681 1.543 5.883 3.79 6.488 8.744 6.712 14.37 1.444 36.231 3.244 72.448 4.966 108.67 0.237 4.998 0.684 9.986 3.511 14.822-0.982-13.986-1.209-28.079-3.143-41.931-2.184-15.632 0.304-31.17-0.611-46.742-0.236-4.028 0.824-8.567 2.663-12.169 2.184-4.276 7.669-7.113 5.273-13.14m-23.24 51.643c-4.859 35.55-9.431 71.141-14.689 106.63-1.28 8.634 0.713 15.282 5.617 22.201 8.369 11.807 15.918 24.192 24.22 36.958-0.326-15.08-2.599-28.614-6.861-42.054-2.093-6.601-3.78-14.902 3.731-20.603 2.995-2.273 1.312-5.484 1.16-8.075-1.93-32.86-9.384-65.16-8.747-98.088-3.492-0.194-4.197 1.324-4.431 3.031m62.66 390.77c-0.453-23.14-6.669-45.093-11.908-67.272-1.194 0.267-2.388 0.535-3.583 0.803 5.164 22.156 10.327 44.313 15.491 66.469m-7.687-296.97c-1.021-15.476-5.458-30.155-11.344-44.722 3.782 14.908 7.563 29.815 11.344 44.722m4.173 100.67c9.422-4.692 6.451-13.947 7.291-21.575 0.205-1.86-0.49-6.559-4.029-6.261-2.549 0.215-4.702 2.685-5.219 6.15-1.111 7.445 1.994 14.407 1.957 21.686m-82.077-22.244c0.337-2.285 0.724-4.561 1.123-6.835 0.824-4.705 1.685-9.4 2.221-14.15 1.858-16.432 0.638-30.866-4.529-46.642-0.772-2.358-1.666-4.676-2.611-6.977 6.215-29.764 10.613-58.671 13.767-87.822 1.899-17.55 5.297-34.94 8.136-52.385 1.401-8.608 0.598-16.596-4.78-23.891-2.434-3.303-4.465-6.658-6.146-10.073 0.586-0.741 1.152-1.497 1.676-2.281 5.615-8.404 8.021-17.766 9.108-27.426-1.623-4.705-1.715-10.313-1.165-16.975 3.274 6.158 7.109 9.399 5.743 14.244-0.39 1.38-0.363 2.415-0.042 3.16 0.032 0.058 0.067 0.115 0.1 0.173 0.602 1.127 1.948 1.505 3.585 1.297 6.863-0.872 7.179 4.571 9.268 8.611 4.483 8.672 5.311 19.563 16.296 24.335 3.123 1.357 4.692 6.291 6.973 9.584-2.347 0.433-3.918 2.508-5.772 3.912 4.226 35.25 14.907 69.538 22.034 104.39 3.559 17.397 7.144 34.79 11.079 53.95 11.693-14.988 17.877-31.426 31.09-41.417 13.134-9.931 30.064-9.195 45.94-11.12-18.222 20.761-35.603 41.352-52.857 62.091-15.845 19.047-22.545 38.723-13.346 62.934 4.15 10.921 5.937 22.74 8.902 34.576-6.663-0.307-8.213-11.865-15.489-4.174-2.814-2.83-9.102-2.267-8.51-8.423-6.408 1.751-7.141-3.078-8.344-7.46-2.013-7.335-2.458-15.754-6.486-21.755-10.102-15.049-4.35-31.335 0.594-43.622 4.7-11.682 6.726-21.767 3.206-32.295-11.472-34.308-14.995-70.124-21.731-105.33-0.446-2.331 0.182-5.695-4.308-6.636 7.071 56.056 8.681 111.93 13.726 167.52 3.123 34.411 3.478 69.416 16.845 102.2 2.093 5.132 0.968 9.843-1.783 14.451-5.215 8.736-5.9 17.542-2.81 27.604 11.173 36.4 19.28 73.625 26.901 110.88 1.291 6.307 11.791 16.539-2.588 22.139-0.637 0.248-1.041 2.423-0.759 3.49 2.104 7.939 1.553 16.93 8.566 23.252 0.314-0.252 0.593-0.522 0.89-0.783-0.73-2.74-1.466-5.478-2.218-8.211 0.839 2.641 1.695 5.276 2.563 7.907 4.397-3.993 6.957-8.927 7.459-14.304 2.356-25.194 17.21-47.079 16.881-73.648-0.165-13.251 8.983-28.739 18.228-39.521 16.732-19.514 31.531-39.947 43.572-62.504 4.225-7.917 6.851-16.415 6.304-25.523-0.17-2.834-1.748-5.548 3.054-5.848 3.926-0.243 6.912 0.358 7.093 4.882 0.168 4.217 0.044 8.463-0.238 12.678-2.031 30.319-12.648 58.269-23.418 86.265-1.315 3.419-2.605 6.848-3.891 10.279-0.2 1.478-0.397 2.941-0.603 4.474-0.299-0.213-0.565-0.425-0.836-0.637-10.502 28.184-20.443 56.6-33.584 83.686-6.775 13.965-12.249 30.773-33.019 28.4-0.777 7.336 9.112 10.468 3.993 19.549-1.043-1.7-2.234-3.262-3.498-4.749 0.205 2.067 0.073 4.091-0.645 6.042-0.676-3.025-1.376-6.042-2.094-9.054-7.087-7.292-15.37-13.109-16.815-23.737-4.886-35.932-17.918-69.898-24.176-105.55-0.748 18.831-0.93 37.508 0.282 56.094 2.37 36.332 7.683 72.863 3.681 109.01-3.788 34.205 1.668 67.393 3.588 101.01 0.393 7.173-0.821 14.926 1.513 21.399 4.961 13.756-4.481 27.201 1.777 41.45 5.787 13.177 10.951 27.513 9.962 42.667-0.11 1.684 0.227 2.289 1.253 2.461 2.311 0.387 4.143-0.587 4.906-2.925 2.628-8.043 5.785-15.967 7.69-24.181 6.509-28.078 19.643-53.015 35.368-76.803 11.486-11.45 17.08-27.926 29.305-39.568-1.714 7.199 5.799 13.506 5.868 20.534 1.47-8.104-2.18-15.706-2.239-23.66 1.534-1.203 3.133-2.356 4.884-3.396 3.774 15.744-0.173 29.989 0.621 44.184-2.92 10.459-3.452 21.295-8.985 31.367-14.536 26.464-28.303 53.381-41.476 80.554-8.367 17.26-8.456 17.983-26.075 11.838-18.915-6.596-18.904-6.597-17.217 14.506 0.039 0.493-0.935 1.068-1.982 2.188-11.003-19.152-16.815-84.351-17.055-84.351-2.442-19.044-2.242-38.482-3.32-57.73-3.782-32.139-2.595-64.89-11.844-96.358-0.962-3.274-1.535-6.562-0.155-9.871 11.79-28.259-0.865-55.825-1.346-83.793-6.239 9.743-8.097 20.263-8.736 31.038-0.544 9.187-1.975 17.816-7.079 25.999-8.374 13.429-7.92 13.669-21.716 4.965-2.091-1.32-11.191-24.804-13.427-25.891-4.957-67.454-9.938-78.304-10.284-146.04 3.02-33.07 16.285-99.798 14.413-133.89"/></g><g transform="translate(526.6 877.99)"><path d="m0 0c0.018 0.067 0.045 0.111 0.061 0.185-4e-3 2e-3 0.15-0.14 0.15-0.14-0.069-0.015-0.141-0.03-0.211-0.045-0.533-2.018-2.211-1.363-5.56-1.184 3.007 0.641 4.329 0.922 5.56 1.184m30.041 7.729c4.024 4.943 8.048 9.886 12.073 14.829-1.695-7.098-3.558-14.037-12.073-14.829-0.049-0.06-0.098-0.12-0.146-0.18l-0.155 0.142c0.106 8e-3 0.197 0.028 0.301 0.038m-71.538-74.361c1.313-1.044 2.627-2.089 3.939-3.133 20.858 10.285 43.074 19.275 59.046 36.795 15.478 16.977 28.35 36.428 41.397 55.458 3.669 5.351 5.442 13.039 5.455 19.66 0.036 18.28-16.236 27.549-31.881 18.929-5.675-3.126-10.979-7.172-16.965-9.443-40.643-15.419-53.599-49.579-59.723-88.113-1.569-9.869-0.906-20.092-1.268-30.153"/></g><g transform="translate(758.09 1057.2)"><path d="m0 0c3.411 0.013 8.904 5.377 8.318 8.556-0.423 2.301-1.88 4.21-4.489 3.855-5.004-0.681-6.225-4.833-7.491-8.481 0.17-2.638 1.136-3.939 3.662-3.93"/></g><g transform="translate(671.12 950.8)"><path d="m0 0c-0.035 0.763-0.069 1.527-0.104 2.29h34.572c-8.955-3.036-21.797-1.305-34.468-2.29m-14.446 19.157c7.189 1.709 13.991 0.023 20.721-2.276-7.119-1.087-13.852 1.186-20.721 2.276m-32.205-1.316c7.64 3.039 15.533 4.215 25.847 1.391zm148.98 14.164c5.963-8.031 1.715-12.892-0.28-14.857-0.056-0.054-0.086-0.103-0.134-0.157 1.267-2.887-1.802-1.984 0 0-0.372 0.848-1.1 2.005-2.462 3.578-2.416 2.791-1.25 10.398-4.435 10.518 0.332 0.306-21.419 23.765-30.478 33.916-24.785 0.039-49.598 0.897-74.615-4.108-31.114-6.224-51.059-21.853-62.377-49.943-1.379-3.421 1.735-11.04 5.101-13.438 5.41-3.856 12.659-5.392 19.327-7.167 12.062-3.21 24.256-5.93 36.424-8.73 3.598-0.827 7.46-2.241 10.918-1.67 28.744 4.744 57.564 9.22 86.061 15.202 13.97 2.933 27.902 7.656 40.736 13.872 10.077 4.881 18.441 13.297 29.635 21.694-19.438 16.518-34.253 36.71-63.396 34.934-6.796-0.414-13.591-0.574-20.386-0.626l29.469-31.967c0.313-0.332 0.621-0.685 0.892-1.051"/></g><g transform="translate(910.64 462.38)"><path d="m0 0c-0.646-1.173-0.617-2.608-4e-3 -5.653 0.185-17.13 2.065-34.234 3.834-51.343 3.06 26.263-0.128 52.35-2.433 78.586-0.896-7.204-1.308-14.4-1.397-21.59"/></g><g transform="translate(896.73 445.9)"><path d="m0 0c0.12 0.725 0.282 1.489 0.17 2.195-0.244 1.538 0.867 3.96-1.454 4.313-2.552 0.388-2.342-2.256-2.388-3.727-0.142-4.631-0.11-9.267-0.088-13.903-7.378 46.995-53.302 268.12-56.876 293.48-0.652 4.627-35.808 93.65-44.207 114.81 0.229 0.65 0.457 1.3 0.687 1.95-0.401 0.396-0.801 0.792-1.2 1.188-0.172-0.132-0.381-0.246-0.591-0.36-0.218 0.545-0.392 0.982-0.507 1.269-0.112-0.461-0.166-1.058-0.194-1.714-0.389-0.326-0.538-0.765 0-1.522 0.556-15.935 16.74-67.407 15.941-72.886-1.312-9.003 13.263-65.237 12.763-74.322-0.941-17.099 1.898-34.253 0.146-51.258-5.488-53.284 68.483-208.03 61.68-261.15-1.344-10.499 10.839-231.68-47.96-306.87-2.483-3.174-7.59-6.708-11.845-7.136-0.581-0.059-1.163-0.112-1.744-0.17 0.139-1.463 0.055-2.945-0.253-4.399 5.69-0.076 10.145-2.196 9.215-12.34 2.716 0.068 4.044-0.281 4.417 0.166 8.53 10.229 17.501 13.964 30.581 6.369 5.846-3.395 14.498-2.797 21.814-2.498 4.344 0.177 12.479-1.482 10.372 8.622-0.047 0.228 0.469 0.665 1.323 1.186-3.598 1.223-5.991 3.981-7.118 7.269-10.976-0.445-15.23 3.186-14.504 14.325 0.447 6.864 3.144 34.299 6.646 68.662 0.202 0.171 0.39 0.33 0.598 0.507l-0.03 5.055c7.044 68.926 16.902 161.83 18.607 175.21 2.292 17.98-0.713 49.949-6.491 88.314 0.425 6.459 1.418 12.909 2.49 19.37"/></g><g transform="translate(904.75 428.53)"><path d="m0 0c0.036 1.386-0.587 2.683-1.103 3.969-0.46-1.265-0.95-2.549-0.874-3.953 0.98-18.151-2.237-36.354 0.926-54.551 2.256 4.928 1.254 10.144 1.288 15.198 0.089 13.112-0.577 26.236-0.237 39.337"/></g><g transform="translate(903.93 437.72)"><path d="m0 0c-1.456-1.847-0.961-3.528-0.279-5.228 0.618 1.696 1.186 3.357 0.279 5.228"/></g><g transform="translate(908.11 550.1)"><path d="m0 0c-5.728-13.941-7.877-26.664-7.581-39.945 5.81 11.962 9.397 24.408 7.581 39.945"/></g><g transform="translate(901.07 488.46)"><path d="m0 0c-0.463-6.477 6.693-9.022 7.609-14.781 4.456 8.677-3.622 10.63-7.609 14.781"/></g><g transform="translate(901.09 488.85)"><path d="m0 0c-0.093 0.039-0.17 0.087-0.259 0.128 0.015-0.11 0.039-0.216 0.054-0.327 0.06-0.067 0.131-0.127 0.193-0.193 0.01 0.135 3e-3 0.261 0.019 0.4z"/></g><g transform="translate(893.67 501.62)"><path d="M 0,0 C 2.168,-4.332 1.667,-10.129 7.159,-12.644 6.456,-7.543 4.293,-3.209 0,0"/></g><g transform="translate(570.82 632.89)"><path d="m0 0c1.498-0.574 2.665-0.284 3.339 1.284-0.584 0.388-1.169 0.777-1.754 1.165-0.512-0.275-1.023-0.549-1.535-0.823z"/></g><g transform="translate(578.18 614.41)"><path d="m0 0c-0.071-0.12 0.804-0.806 1.239-1.229 0.386 0.468 0.772 0.936 1.157 1.404-0.845 0.399-1.744 0.914-2.396-0.175"/></g><g transform="translate(567.66 1023.4)"><path d="m0 0c0.031-0.036 0.062-0.048 0.092-0.081-0.015 0.057-0.023 0.117-0.039 0.172z"/></g><g transform="translate(564.62 1023.5)"><path d="m0 0c-0.014-0.117-0.036-0.245-0.056-0.369 0.059 0.056 0.112 0.117 0.171 0.171z"/></g><g transform="translate(553.37 1013.5)"><path d="m0 0c-2.729-0.864-4.84-3.941-3.033-6.475 1.401-1.965 4.046-4.675 7.559-0.323 2.827 3.5 8.923 3.935 9.782 9.978 0.34 2.394 3.003 2.554 4.904 1.908 2.379-0.808 4.358-1.283 5.349 1.643 0.461 1.368 1.092 3.166-0.115 4.198-1.897 1.621-3.509-0.964-5.421-0.924-1.545 0.034-3.062-1.822-4.642-0.143 0.48-1.841 0.163-4.188-1.518-4.205-2.636-0.027-1.933 2.266-1.663 4.031-3.58-3.376-5.934-8.021-11.202-9.688"/></g><g transform="translate(564.4 802.04)"><path d="m0 0c1.43 0.289 2.86 0.578 5.503 1.112-4.788 2.091-8.158 4.35-11.354 7.122-4.316 3.745-6.275 3.059-7.545-2.723-0.712 0.469-1.402 0.966-2.058 1.504 0.612-0.856 1.228-1.709 1.841-2.565-0.09-0.481-0.178-0.987-0.262-1.527 0.543-0.478 1.085-0.956 1.628-1.434 0.342-0.124 0.684-0.247 1.026-0.37 15.849-22.104 31.825-44.113 48.187-65.823 14.216-18.86 29.438-37.046 45.137-54.871 1.649 1.519 52.669-48.01 54.312-46.477-30.78 37.07-107.14 124.58-137.04 165.97 0.21 0.027 0.419 0.055 0.628 0.082"/></g><g transform="translate(597.08 1062.5)"><path d="m0 0c-6.425-1.656-13.54 1.964-20.302-3.164 7.385-1.798 7.385-1.798 20.302 3.164"/></g><g transform="translate(107.63 654.72)"><path d="m0 0c-0.29-1.148-0.758-2.749 0.588-3.2 0.92-0.309 2.402 0.334 3.352 0.971 3.59 2.405 4.175 6.946 6.867 10.02-6.498 1.426-9.393-2.18-10.807-7.791"/></g><g transform="translate(118.45 662.51)"><path d="m0 0c-1e-3 -1e-3 0-1e-3 0-2e-3 -1e-3 -1e-3 4e-3 0.022 4e-3 0.022 0 1e-3 -1e-3 3e-3 -1e-3 5e-3 -1e-3 -3e-3 0-5e-3 -1e-3 -9e-3 -5e-3 -5e-3 -9e-3 -0.012-0.014-0.017 4e-3 -1e-3 7e-3 -1e-3 0.011-2e-3z"/></g><g transform="translate(816.46 863.51)"><path d="m0 0c-1.655-5.807-3.311-11.613-4.676-16.401 5.347 3.417 6.589 9.432 4.676 16.401"/></g><g transform="translate(225.02 909.26)"><path d="m0 0c0.526-5.361 1.606-9.952-5.255-10.092l-0.493-0.237c0.21 4.102 1.921 7.306 5.748 10.329m19.151-157.97c2.383 20.872-0.45 58.664 3.309 79.788 0.103 0.576 0.526 1.022 1.089 1.181 1.284 0.36 40.665 6.566 47.78 7.984 18.859 3.759 45.482 26.558 54.228 17.794 4.552-4.56 9.035-13.013 13.362-23.071-5.498-6.026-11.838-12.974-18.117-19.853-0.279 0.529-0.552 1.062-0.833 1.59-2.494 4.691-1.455 13.174-8.985 11.659-7.484-1.513-3.279-9.406-3.977-14.559h-7e-3c2.389-2.128 4.489-4.413 6.399-6.8-8.715-9.548-16.48-18.051-20.545-22.494-4.842 12.212-8.562 24.918-11.832 37.82l-0.315-0.04v4e-3c-5.184 4.905-10.448 7.276-7.906-3.283 3.299-13.663 8.107-26.994 12.814-40.271 0.179-0.504 0.366-1.005 0.545-1.509l-8.291-8.994c-3.212 11.527-6.562 23.021-9.967 34.503 0.191-3.038 0.402-6.083 0.741-9.154 0.637-5.847 1.06-11.715 1.482-17.583 3e-3 -0.087 0.013-0.174 0.02-0.261 1.338-3.875 2.681-7.749 3.902-11.651l-24.877-26.985c-1.437 14.589-2.842 29.599-5.69 45.469l-1.275 0.211c1.872-17.976 1.838-34.883 1.717-51.373l-20.249-21.965c-0.313-0.331-0.621-0.685-0.892-1.051-0.295-0.397-0.547-0.781-0.793-1.163-3.261 14.543-4.517 29.354-2.837 44.057m78.071 115.12c0.778-5.78-2.377-10.582-3.506-15.888-2.012 6.086 2.826 10.471 3.506 15.888m5.26-6.03c0.808 5.473-0.887 11.949 5.693 15.102-1.478-5.204-2.106-10.77-5.693-15.102-0.023-0.159-0.041-0.32-0.068-0.477 0-1e-3 -0.176 0.155-0.176 0.155 0.091 0.103 0.158 0.216 0.244 0.322m3.377 62.365c4.811 3.807 3.734 8.914 2.407 12.947-3.62 10.997 4.985 16.695 9.317 24.261 0.172 0.299 1.32 0.038 1.96 0.038-3.308-9.997-9.811-18.716-10.147-30.648 5.687 3.737 6.25 10.591 11.989 12.764-0.135-3.069-1.801-5.522-3.106-8.176-3.727-7.576-8.55-15.987-7.972-23.772l-3.24-0.189c0.512-1.286 1.585-2.505 3.35-0.796 0.041-0.304 0.072-0.611 0.131-0.914 1.505-7.666-1.262-12.196-3.933-17.731 0.01-0.116 0.011-0.233 0.024-0.349 0 0-0.131 0.13-0.118 0.119v-2e-3l-0.013 0.013c0.035 0.074 0.071 0.145 0.107 0.219-0.715 7.966 3.622 16.355-2.66 24.011-1.385 1.686-0.47 6.326 1.904 8.205m142.41 58.382c0.527 0.076 0.857 0.371 0.993 0.884 3.145 1.07 5.401 0.379 5.809-3.25 0.219-1.933-1.109-3.841-2.712-3.818-3.866 0.055-4.455 2.959-4.09 6.184m-188.51-367.13c2.009-11.479 3.755-23.025 5.321-34.617-1.144 0.063-2.315 0.255-3.505 0.77 1.215-1.832 2.509-2.732 3.828-3.154 1.577-11.869 2.968-23.785 4.247-35.727 1.992 2.663 3.946 5.431 5.87 8.295l6e-3 -65.603c-3.659 0.814-7.218 0.76-10.72 0.202-0.859 24.126-2.118 48.14-7.027 71.115-3.817 17.849-4.601 39.619 1.98 58.719m24.658-226.69c0.91-7.694 1.841-15.383 2.771-23.072-0.526-4.211-1.303-8.437 1.098-10.389 0.034 0.269 0.031 0.534 0.058 0.802 1.07-8.811 2.144-17.619 3.208-26.429-2.352-10.773-5.341-12.626-6.861 0.058-1.338 11.147 1.662 25.406-1.903 33.72-15.907 37.103-16.469 78.592-17.898 119.84 3.559 0.546 7.082 1.409 10.636 1.995l1e-3 -4.377c2.676-30.787 5.279-61.594 8.89-92.148m-144.64 637.33c8.649-17.369 10.361-28.316 23.48-41.435 1.838-1.837 5.782-14.329 7.348-22.045 0.681-3.353 0.982-11.632 1.838-14.696 0 0 3.306-20.458 3.673-25.719 0.644-9.199-0.994-7.19-3.673-18.37l-11.023-20.207s-3.934 6.879-5.511 9.185c-8.628 12.616-22.758 33.795-27.556 38.578l-6.155 5.276c-1.413-1.078-2.949-1.811-4.205-1.815-2.525-9e-3 -3.491 1.292-3.661 3.929 0.402 1.158 0.812 2.358 1.327 3.49l-0.165 0.142c-14.497 21.93-21.128 39.101-26.203 57.399 0.165 0.078 0.319 0.131 0.489 0.219-1.799 5.34-3.349 10.654-4.634 15.973-0.639-2.091-1.344-4.132-2.074-6.143-0.161-0.444-0.325-0.884-0.489-1.323-0.715-1.914-1.45-3.805-2.209-5.641-0.685-1.657-1.377-3.288-2.074-4.875-2.221-5.056-1.451-10.529-0.559-16.865 1.01-7.171 2.154-15.298-0.987-24.007-1.038-2.879-0.978-6.982-0.914-11.325 0.035-2.412 0.072-4.906-0.07-7.482-0.539-9.445-1.361-18.944-2.156-28.131-1.102-12.729-2.164-25.089-2.563-37.381 3.113-2.202 6.446-4.035 10.182-5.188 5.082-1.569 6.355-7.762 5.538-13.439-0.069-0.473-0.371-0.882-0.794-1.106-1.725-0.911-3.449-1.82-5.174-2.73-3e-3 0.831-0.018 1.656-0.079 2.458-0.492 0.034-0.985 0.068-1.477 0.102-0.228-1.521-0.453-3.042-0.682-4.562-0.339-0.388-0.673-0.778-1.008-1.168-5e-3 1.886 0.065 3.809-0.075 5.628-0.452 0.032-0.904 0.062-1.356 0.094 0.76 1.994 1.533 4.014 2.286 5.996-1.757-2.382-3.97-4.484-6.92-6.036-0.138 0.111-0.273 0.219-0.411 0.331 0.154-3.816 0.41-7.642 0.777-11.484 1.37 3.578 2.715 7.115 4.067 10.665-0.435-2.897-0.863-5.794-1.299-8.69-0.887-1.089-1.779-2.176-2.638-3.282 0.053-0.519 0.096-1.036 0.153-1.556 0.272-2.451 0.472-4.904 0.662-7.358-0.706-4.721-1.423-9.439-2.116-14.162-0.223-1.522-0.032-3.236 1.898-3.409 0.769-0.069 1.596 0.027 2.347 0.263 0.248-0.129 0.533-0.23 0.895-0.263 2.108-0.189 4.664 0.832 4.835 2.72 0.71 7.777 5.345 15.173 1.278 23.537-0.273 0.561-0.465 1.16-0.624 1.776 3.716 4.356 8.043 8.162 13.308 11.071 0.115 0.063 0.244 0.117 0.371 0.153 13.445 3.88 14.184-8.404 39.481-16.274 27.25-8.478 48.322-3.975 58.704-5.8 0.713-0.125 1.246-0.717 1.269-1.442 0.269-8.709 0.593-17.424 0.405-26.108-5.846-0.071-11.714-0.142-17.621-0.213 0.641 8.971 0.933 17.948 0.807 26.947-1.165-9.053-2.724-18.04-4.49-26.991-2.92-0.035-5.853-0.071-8.798-0.106 1.857 6.545 3.616 12.937 5.331 18.981-2.009-6.219-4.025-12.562-6.047-18.99-7.019-0.084-14.107-0.17-21.316-0.257 1.727-1.437 10.031-2.354 20.355-2.803-4.666-14.886-9.363-30.261-14.084-45.958 0.101-0.223 0.199-0.447 0.298-0.67 2.706 8.667 5.471 17.319 8.301 25.956 2.257 6.89 4.324 13.832 6.276 20.637 2.886-0.117 5.916-0.199 8.999-0.246-4.581-22.524-10.384-44.843-14.666-67.416 0.952-2.375 1.891-4.75 2.819-7.128 3.419 13.139 8.763 25.71 11.231 39.157 2.164 11.799 3.742 23.57 4.711 35.348 6.15-0.032 12.324 0.071 17.791 0.302-0.352-9.118-1.352-18.196-3.685-27.191-7.784-30.017-10.382-60.767-13.624-91.425 1.763-4.731 3.548-9.475 5.348-14.156 0.216-0.56 0.432-1.123 0.647-1.684 5.302 45.433 13.813 90.26 21.995 135.18 2.79 0.291 4.985 0.64 6.284 1.048-5e-3 0.626-0.01 1.253-0.015 1.879-1.946-0.024-3.893-0.047-5.84-0.071 0.348 5.41-0.87 20.753 1.176 26.653 0.44 1.268 2.245 1.352 2.784 0.123 5.515-12.569 4.416-41.22 3.957-51.872-0.952-21.844-0.638-43.749-0.847-65.626v-3e-3c-0.023-10.106-0.046-20.214-0.069-30.32 0.706-18.798 0.525-37.565-0.099-56.316-3.871-0.517-8.292-0.223-11.614-4.946 4.102 0.596 7.88 1.02 11.504 1.529-0.681-18.834-1.791-37.653-2.907-56.471-2.851-1.65-5.678-3.367-8.627-4.757 3.104-0.27 5.851 0.417 8.436 1.533-0.805-13.607-1.6-27.214-2.221-40.828-1.003-21.995-1.078-44.031-1.803-66.041-0.186-5.781 1.351-12.021-2.899-17.088-0.229-0.272-0.367-0.6-0.366-0.955 0.035-9.714 0.954-91.521 1.075-108.19-4.312-0.121-8.253-0.355-11.131-0.658-9.447-0.998-19.319-4.505-28.519 1.949-1.45 1.016-4.569 0.501-4.598-2.893 0.744-1.133 1.489-2.266 2.233-3.4 0.849 0.156 1.697 0.312 2.545 0.469 10.975-1.16 21.935-0.299 32.891 0.995 0.129-0.881 0.259-1.762 0.388-2.643l-33.868-4.623c-1.498-0.197-2.994-0.395-4.492-0.592-1.396-0.325-2.876-1.684-4.082 0.328-0.162-0.364-0.325-0.723-0.488-1.084-0.545-0.575-1.09-1.151-1.636-1.727 0.24-0.456 0.481-0.912 0.722-1.368 8.289-2e-3 16.577-3e-3 24.866-4e-3 -5.188-4.476-11.587-4.222-17.6-5.344 4.403-2.371 9.627-2.44 13.451-0.529 10.241 5.12 21.552 4.612 32.166 7.486 2.421 0.656 4.43 1.347 5.637 3.613-4.056 3.22-8.749 0.603-13.703 2.074 10.071 10.698 23.494-1.59 33.797 6.083-3.812 1.241-11.154 1.803-18.792 1.93-2.889 26.434-0.536 129.34 2.864 150.01 0.025 0.149 0.072 0.284 0.142 0.419 2.158 4.169 3.62 8.449 4.657 12.805 0.026 0.11 0.04 0.222 0.043 0.335 0.588 25.571 1.172 51.143 1.772 76.714 2.523 1.124 5.195 1.848 8.199 1.682-2.918 0.47-5.613 0.346-8.164-0.167 0.416 17.688 0.866 35.374 1.308 53.061 4.977 0.93 9.887 1.172 14.855-0.331 1.44-0.435 2.903-1.452 3.458 0.569 0.511 1.86-0.38 3.112-2.676 3.428-5.256 0.725-10.43 0.45-15.553-0.284 0.22 8.742 0.418 17.484 0.648 26.224 0.035 1.282 0.33 2.557 0.741 3.829 1.47 1.116 2.799 2.12 4.129 3.082 2.501 1.81 5.06 3.54 7.593 5.306-3.331 0.21-6.357-0.42-9.346-0.884 0.062 9.424 0.127 18.85 0.189 28.271 0.121 0.197 0.214 0.396 0.33 0.591-0.796 0.311-1.678 0.763-2.673 1.4-0.306 0.196-0.54 0.509-0.644 0.859-0.039 0.131-0.074 0.264-0.113 0.395 0.236 0.299 0.472 0.598 0.761 0.931 2.416 2.791 1.25 10.398 4.435 10.518-0.182 0.169 6.353 7.381 13.77 15.518-0.037-6.084-0.044-12.126 0.074-18.157 0.91-69.326 6.23-138.06 10.738-206.9 0.101-10.315 0.295-20.62 0.528-30.923h-28.222c7.493-2.54 17.71-1.747 28.269-1.996 1.134-48.663 3.555-97.215 5.941-145.77 0-0.519 5e-3 -1.035 5e-3 -1.555 2.194-0.228 3.576-1.233 4.415-2.753-1.941 11.179-4.447 22.493-3.559 34.591 0.57 7.72 0.274 18.721 6.016 19.835 7.059 1.367 9.28-9.876 9.779-18.339 1.514-25.859 2.83-51.726 5.518-77.759 1.398 0.269 2.791 0.59 4.19 0.876 2.051 3.781 2.961 8.683 5.369 11.625 2.748 3.906 6.126 4.994 9.729 5.11 0.972-0.104 1.942-0.041 2.907 9e-3 0.609 21.837-6.055 42.079-6.817 63.617-1.094 23.794-3.754 47.176-6.828 70.451-0.582-0.137-1.427 6.898-2.343 15.838 9.197-1.438 16.573-0.093 23.132 4.161-8.547 1.276-15.712-2.954-23.204-3.463-1.571 15.45-3.337 36.091-4.343 35.709-0.334 1.647-0.7 3.924-1.088 6.654l24.031-1.293c-7.197 2.863-14.644 4.027-24.101 1.797-2.614 18.613-6.234 57.382-8.474 68.083v-6e-3c-1.295 8.171-2.597 16.338-3.601 24.576 1.06 0.053 2.08-0.029 3.03-0.502-0.982 1.469-2.086 2.194-3.28 2.553-1.127 9.811-1.776 19.736-1.34 29.926-6.072 23.557-3.423 49.84-9.823 73.297-0.132-0.053-0.236-0.129-0.368-0.182-7.497 9.348-7.974 22.713-8.912 35.775-0.479 3.895-0.899 7.816-1.305 11.756 7.724 8.472 14.718 16.177 14.529 16.352 3.169 4.84 6.729 9.751 10.617 14.697 2.701-9.317 4.477-18.844 3.503-28.989-0.878-6.696-0.1-14.183-2.4-20.195 6.481-33.683 17.133-66.434 24.187-99.974l3.34-1.549 0.121-0.945c-1.033 0.094-2.736 1.096-3.346 1.961 3e-3 -0.01 3e-3 -0.016 6e-3 -0.027 0.047-0.077 0.356-0.566 0.852-1.928 1.891-5.257 3.997-10.159 6.035-14.907 1.954-4.548 3.769-8.8 5.25-12.958-4.953 0.266-9.215-1.843-13.606-2.076 4.501 0.056 9.11-0.434 13.997 0.974 1.489-4.347 2.578-8.606 3.003-12.998 1.904-19.792 9.264-38.689 21.405-55.289-7.296 36.466-20.466 71.574-22.525 108.99-0.074 0.148-0.127 0.285-0.201 0.433-9.06 17.515-13.405 36.801-16.309 55.759-4.597 29.948-11.655 59.213-19.671 88.231 2.635 3.19 5.411 6.39 8.327 9.595 6.169-17.202 12.717-34.273 19.096-51.402h7e-3c7.845-15.128 24.348-50.09 31.709-65.778 24.362-53.656 46.287-108.39 70.192-162.25 13.037-29.362 76.353-201.46 88.665-231.12 4.52 1.532-11.183 59.795-6.696 61.405-9.657 22.769-49.116 131.77-58.773 154.54v-3e-3c-26.018 58.323-52.044 116.64-78.069 174.96v0.014c-0.766 1.679-1.549 3.348-2.329 5.019 1e-3 3e-3 4e-3 4e-3 5e-3 7e-3 -8.134 17.489-30.417 66.24-35.892 84.859-8.99 11.469-15.735 23.925-21.111 36.982 6.859 7.039 14.374 14.058 22.497 20.976 9.289-13.738 13.031-30.448 19.697-45.331 5.039-11.256 10.739-22.16 16.68-32.932 3.176 1.488 9.144-10.16 9.16-16.292 13.929-24.399 28.162-48.621 38.08-75.122 18.354-49.017 44.593-94.385 67.102-141.5 2.712 2.431 5.337 4.913 7.788 7.484-1.781 3.974-3.477 7.98-5.023 12.04-6.25 16.456-10.501 32.494-23.175 46.961-12.566 14.341-17.985 35.025-26.172 53.09-11.119 24.52-21.889 49.197-32.806 73.808v3e-3c-24.323 39.762-42.418 82.749-63.799 124.04 6.19 4.992 12.702 9.91 19.507 14.727 8.34-21.629 15.941-46.518 22.102-57.04 12.027-22.858 25.394-45.084 32.907-70.057 0.031-0.104 0.073-0.204 0.126-0.299 9.487-17.097 24.324-31.984 25.392-52.583-5.675 2.512-3.517 9.083-9.394 11.465 1.902-7.88 3.393-15.002 5.396-21.976 1.072-3.734 4.789-5.567 7.601-7.891 2.124-1.754 3.424-1.083 4.178 0.239 22.658-20.59 34.059-47.991 45.937-75.059 0.492-1.122 2.051-1.215 2.673-0.159 6e-3 0.012 0.013 0.022 0.018 0.033 0.261 0.442 0.281 0.986 0.05 1.444-18.087 36.007-37.397 71.385-55.01 107.57 9e-3 0.344 0.017 0.687 0.029 1.032 0.143 4.077-0.909 8.078-5.863 11.966 0.248-0.933 0.472-1.842 0.697-2.753-11.59 22.445-24.791 44.197-32.947 68.318-1.704 5.038-4.457 9.738-2.004 14.664 0.422 0.848-0.068 1.907-0.995 2.101-7.339 1.541-9.067 8.749-12.602 14.158-13.116 18.679-16.051 40.021-18.717 61.424 0.072 0.047 0.141 0.096 0.213 0.145 7.62 8.257 1.758 21.788 1.758 21.788s-1.591-1.744-4.263-4.673c-0.302 1.973-0.621 3.941-0.972 5.901-1.374 7.714 0.412 17.155 7.575 19.313 17.569 5.291 26.392 20.8 38.831 31.84l-19.732 10.331 16.533 5.51c2.327 3.002 8.712 7.442 11.022 11.023 5.631 8.727 12.74 11.399 21.899 16.772 2.457 1.441 4.914 2.897 7.373 4.354 10.467 6.201 21.089 12.483 32.201 17.968-2.021 1.797-2.245 3.027-1.46 4.657 0.497-0.712 1.025-1.419 1.535-2.152 2.119 1.797 2.873 4.107 3.683 6.385-0.347 0.896-0.747 1.484-1.181 1.862 1.182 1.844 2.48 4.112 3.753 7.033 2.859 6.567 4.238 16.669 11.597 11.003 4.061-7.053 8.608-11.234 18.293-11.269 4.418-0.015 8.678-0.709 12.838-1.819 1.493 0.34 3.785 1.743 5.88 3.052-5.685 1.772-11.343 3.633-16.955 5.643-11.232 4.023-13.739 10.835-18.002 21.251 1.106 0.266 2.182 0.585 3.239 0.897 1.932-1.048 4.075-1.67 6.336-2.047 0.981-3.173 1.962-6.345 2.945-9.518 1e-3 -3e-3 1e-3 -6e-3 2e-3 -9e-3 1e-3 -1e-3 1e-3 -1e-3 1e-3 -2e-3v2e-3c3.614 0.761 7.227 1.523 10.84 2.284 0.03-0.107 0.044-0.218 0.076-0.325 0.522-1.242 1.317-2.241 2.289-3.063-1.316-3.027-5.087-6.402-0.406-8.717 3.521-1.742 3.782 3.961 5.16 6.476 0.504 0.918 0.697 2.043 0.824 3.21 0.928 0.682 1.773 1.56 2.564 2.565 3.604 8.799 9.838 13.413 18.431 15.314 0.798 0.177 1.596 0.373 2.391 0.581 2.049 4.854 2.878 10.28 6.466 15.029-0.135-5.439-4.177-9.368-4.037-14.322 3.32 1.066 6.522 2.568 9.295 4.989 0.574-5.063 3.98-7.213 8.277-8.431-0.974-1.091-1.705-2.024-1.521-2.364 2.004-3.714 5.077 0.492 7.726-0.413 2.6-0.01 5.201-0.021 7.8-0.031 1.404-0.142 2.817-0.208 4.257-0.058 0.051 7e-3 0.1 0.018 0.151 0.025 3.886-2.457 6.93-0.421 10.001 1.602 8.91 2.259 16.996 8.944 26.092 7.261 9.076-1.679 17.783-2.928 26.975-1.997 6.083 0.617 9.572 0.187 10.989-1.983 12.039 1.273 24.401 1.619 38.192 1.619 3.617 0 7.232-0.02 10.846-0.041 0.81-4e-3 1.619-4e-3 2.429-9e-3 0.034 2.34-0.054 4.703-0.011 7.041 3.781 2 6.905 4.664 7.953 9.435-41.153 0.031-82.324 1.096-123.42-2.361-12.29 5.379-25.216-0.15-37.657 2.644-33.617-3.848-67.408-0.929-101.07-3.151-4.086-0.144-8.171-0.288-12.255-0.431-4.068 0.227-8.136 0.454-12.204 0.682-3.048-0.111-6.097-0.221-9.146-0.332l-3.154 6.921c-6.73-0.459-10.139-5.43-12.833-11.369-1.881 1.126-3.763 2.253-5.643 3.379-3.023 0.434-6.046 0.869-9.069 1.304-2.645 3.729-6.166 6.193-10.421 5.584-13.63-1.953-27.279-2.501-40.934-2.507-1.207 0.203-2.405 0.457-3.588 0.846-0.692 0.228-1.5 0.498-2.164 0.348-0.81-0.182-1.469-0.609-1.937-1.142-20.172 0.249-40.355 1.327-60.509 0.467-2.377 6.006-7.057 6.752-12.205 6.424v-2e-3c0 1e-3 0 1e-3 -1e-3 1e-3 -11.969-4.401-25.977 0.384-36.668-9.782-11.989-1.814-24.448 2.575-36.13-3.294-0.221 0.963-0.444 1.926-0.669 2.889-15.58 0.052-34.487-0.362-50.067-0.31 2.043-4.119 5.65-8.849 9.586-13.676"/></g><g transform="translate(565.33 1024.2)"><path d="M 0,0 C 0.426,0.113 0.852,0.228 1.275,0.353 0.853,0.485 0.427,0.333 0,0"/></g><g transform="translate(889.97 595.54)"><path d="m0 0c-5.267 1.521-9.049-2.328-13.624-3.307 5.465-2.238 9.317 1.357 13.624 3.307"/></g><g transform="translate(118.23 663.74)"><path d="m0 0c-0.966-0.517-0.056-0.696 0.186-0.996-0.062 0.332-0.124 0.664-0.186 0.996"/></g><g transform="translate(785.14 669.64)"><path d="m0 0c-25.805 17.526-46.923 32.878-45.866 37.542 0.127 0.562-0.078 1.151-0.532 1.507-1.984 1.555-14.255 11.647-16.411 13.378-20.492 20.504-35.127 46.443-56.421 66.394-5.206-6.375-7.476-19.715-14.697-23.882 16.981-16.856 22.945-32.689 40.843-47.814-9e-3 -5e-3 -0.02-6e-3 -0.027-0.011 0.234-0.182 0.496-0.392 0.781-0.626 0.357-0.296 0.687-0.593 1.054-0.888 2e-3 1e-3 5e-3 1e-3 6e-3 2e-3 10.24-8.687 41.456-38.498 47.241-44.106 0.081 0.542 12.107-19.813 12.194-19.267l25.601-12.94 32.724-11.885c-4.18 5.589-7.286 11.773-11.054 17.808-5.164 8.27-10.695 16.277-15.436 24.788"/></g></g></g></svg>
